<?xml version="1.0" encoding="utf-8"?>
<!-- Generator: Adobe Illustrator 16.0.4, SVG Export Plug-In . SVG Version: 6.00 Build 0)  -->
<!DOCTYPE svg PUBLIC "-//W3C//DTD SVG 1.1//EN" "http://www.w3.org/Graphics/SVG/1.1/DTD/svg11.dtd">
<svg version="1.1" id="Layer_1" xmlns="http://www.w3.org/2000/svg" xmlns:xlink="http://www.w3.org/1999/xlink" x="0px" y="0px"
	 width="100px" height="100px" viewBox="0 0 100 100" enable-background="new 0 0 100 100" xml:space="preserve">
<g>
	<path fill="#FFFFFF" d="M100,90c0,5.523-4.478,10-10,10H10c-5.522,0-10-4.477-10-10V10C0,4.477,4.478,0,10,0h80
		c5.522,0,10,4.477,10,10V90z"/>
	<path fill="#030303" d="M10,97c-3.859,0-7-3.141-7-7V10c0-3.859,3.141-7,7-7h80c3.859,0,7,3.141,7,7v80c0,3.859-3.141,7-7,7H10z"/>
	<path fill="#FFFFFF" d="M90.642,30.58c-0.693-10.217-4.328-14.883-5.281-15.941c-1.06-0.953-5.723-4.588-15.939-5.281L69.433,9
		h16.576l-0.341,0.312c-0.005,0.005-0.243,0.226-0.519,0.61h2.542V9H91v3.309h-0.923v2.541c0.387-0.275,0.606-0.514,0.61-0.518
		L91,13.991v16.575L90.642,30.58z M85.948,14.779c1.135,1.407,3.646,5.219,4.693,12.391V14.867
		c-0.143,0.123-0.333,0.271-0.564,0.421v4.659l-0.354,0.033c-0.321-1.751-1.82-4.004-1.835-4.027l-0.164-0.244l0.293-0.033
		c0.674-0.074,1.256-0.325,1.703-0.591v-2.776h-1.501l1.858-2.177v1.819h0.564V9.358H88.05v0.563h1.818l-2.177,1.859V10.28h-2.776
		c-0.266,0.446-0.517,1.028-0.591,1.703l-0.032,0.294l-0.246-0.164c-0.022-0.016-2.277-1.514-4.025-1.836l0.032-0.355h4.659
		c0.15-0.23,0.297-0.42,0.42-0.563H72.83c7.173,1.048,10.983,3.558,12.39,4.694l0.107,0.053c-0.24-1.129,0.013-2.506,0.508-2.99
		c0.227-0.225,0.5-0.269,0.767-0.127c0.3,0.158,0.484,0.378,0.546,0.655c0.119,0.532-0.272,1.063-0.289,1.085l-0.287-0.215
		c0.004-0.004,0.311-0.422,0.227-0.793c-0.039-0.172-0.157-0.308-0.363-0.416c-0.084-0.045-0.201-0.078-0.35,0.066
		c-0.447,0.438-0.646,1.867-0.348,2.893c1.023,0.297,2.453,0.1,2.893-0.348c0.144-0.148,0.111-0.266,0.065-0.351
		c-0.108-0.206-0.245-0.325-0.417-0.363c-0.367-0.082-0.789,0.224-0.793,0.227l-0.215-0.288c0.022-0.016,0.557-0.408,1.086-0.289
		c0.277,0.062,0.498,0.248,0.656,0.547c0.141,0.268,0.096,0.539-0.127,0.768c-0.484,0.494-1.862,0.746-2.99,0.508L85.948,14.779z
		 M88.339,15.991c0.295,0.469,0.947,1.56,1.381,2.702V15.5C89.333,15.709,88.868,15.896,88.339,15.991z M88.997,11.951h0.723v-0.848
		L88.997,11.951z M81.307,10.279c1.142,0.434,2.233,1.087,2.702,1.381c0.094-0.528,0.281-0.994,0.49-1.381H81.307z M88.05,10.279
		v0.724l0.848-0.724H88.05z"/>
	<path fill="#FFFFFF" d="M30.568,91H13.991l0.341-0.312c0.006-0.004,0.242-0.225,0.519-0.609h-2.542V91H9v-3.309h0.922V85.15
		c-0.385,0.275-0.605,0.512-0.609,0.518L9,86.009V69.432l0.359-0.012c0.693,10.217,4.326,14.881,5.281,15.94
		c1.059,0.953,5.723,4.589,15.939,5.281L30.568,91z M14.869,90.641h12.302c-7.175-1.047-10.983-3.557-12.391-4.693l-0.106-0.053
		c0.238,1.129-0.014,2.506-0.508,2.99c-0.227,0.223-0.5,0.268-0.768,0.127c-0.301-0.158-0.484-0.378-0.545-0.655
		c-0.12-0.532,0.271-1.063,0.289-1.085l0.286,0.214c-0.003,0.005-0.31,0.423-0.227,0.794c0.039,0.172,0.157,0.308,0.363,0.416
		c0.086,0.045,0.203,0.078,0.351-0.066c0.446-0.439,0.646-1.869,0.348-2.893c-1.025-0.299-2.455-0.1-2.893,0.348
		c-0.145,0.148-0.111,0.266-0.066,0.351c0.108,0.206,0.245,0.324,0.417,0.363c0.368,0.083,0.788-0.224,0.793-0.227l0.215,0.288
		c-0.022,0.016-0.555,0.41-1.086,0.287c-0.276-0.061-0.497-0.246-0.655-0.545c-0.141-0.268-0.096-0.541,0.127-0.768
		c0.484-0.494,1.861-0.747,2.99-0.508l-0.053-0.106c-1.136-1.406-3.646-5.216-4.693-12.39v12.301
		c0.143-0.122,0.332-0.27,0.562-0.419v-4.659l0.355-0.033c0.322,1.75,1.82,4.004,1.836,4.025l0.164,0.246l-0.293,0.033
		c-0.676,0.074-1.256,0.325-1.703,0.591v2.776h1.5l-1.859,2.177v-1.819H9.359v2.592h2.592v-0.562h-1.819l2.177-1.859v1.5h2.776
		c0.266-0.447,0.519-1.027,0.591-1.702l0.033-0.294l0.246,0.164c0.021,0.016,2.277,1.516,4.025,1.834l-0.032,0.357h-4.659
		C15.139,90.309,14.991,90.498,14.869,90.641z M15.502,89.719h3.192c-1.142-0.433-2.233-1.085-2.702-1.381
		C15.896,88.868,15.709,89.334,15.502,89.719z M11.104,89.719h0.847v-0.723L11.104,89.719z M10.281,88.049v0.848l0.723-0.848H10.281
		z M10.281,81.306V84.5c0.386-0.209,0.852-0.396,1.381-0.491C11.367,83.54,10.715,82.449,10.281,81.306z"/>
	<path fill="#FFFFFF" d="M9.357,30.58L9,30.566V13.99l0.311,0.342c0.006,0.006,0.226,0.242,0.611,0.518v-2.541H9V9h3.307v0.922
		h2.543c-0.275-0.387-0.513-0.605-0.518-0.61L13.988,9h16.578l0.013,0.357c-10.216,0.693-14.882,4.328-15.94,5.281
		C13.686,15.697,10.051,20.363,9.357,30.58z M9.357,14.867V27.17c1.047-7.174,3.559-10.984,4.693-12.391l0.053-0.107
		c-1.127,0.24-2.506-0.012-2.99-0.506c-0.222-0.229-0.268-0.5-0.127-0.769c0.158-0.3,0.379-0.483,0.656-0.546
		c0.53-0.119,1.062,0.273,1.085,0.289l-0.214,0.287c-0.005-0.003-0.422-0.312-0.794-0.227c-0.172,0.039-0.308,0.158-0.415,0.363
		c-0.046,0.086-0.078,0.203,0.064,0.35c0.439,0.448,1.869,0.646,2.894,0.35c0.298-1.025,0.099-2.455-0.349-2.894
		c-0.147-0.145-0.265-0.11-0.35-0.066c-0.205,0.108-0.324,0.245-0.363,0.417c-0.084,0.369,0.223,0.789,0.227,0.793l-0.287,0.215
		c-0.018-0.022-0.409-0.553-0.289-1.086c0.062-0.276,0.246-0.498,0.547-0.655c0.266-0.141,0.539-0.097,0.767,0.126
		c0.495,0.484,0.746,1.862,0.507,2.991l0.107-0.054c1.406-1.135,5.217-3.646,12.391-4.693H14.867c0.122,0.143,0.27,0.334,0.42,0.564
		h4.659l0.032,0.355c-1.75,0.32-4.004,1.82-4.025,1.835l-0.246,0.164l-0.033-0.294c-0.072-0.676-0.324-1.257-0.59-1.703h-2.777
		v1.501l-2.176-1.859h1.818V9.357H9.357v2.592H9.92v-1.818l1.859,2.177h-1.5v2.776c0.447,0.266,1.029,0.517,1.703,0.592l0.293,0.031
		l-0.164,0.246c-0.016,0.022-1.514,2.277-1.834,4.026l-0.355-0.032v-4.66C9.691,15.139,9.501,14.99,9.357,14.867z M10.279,15.5
		v3.193c0.434-1.143,1.086-2.233,1.381-2.702C11.131,15.896,10.665,15.709,10.279,15.5z M10.279,11.951h0.723l-0.723-0.848V11.951z
		 M15.5,10.279c0.207,0.387,0.396,0.853,0.49,1.381c0.469-0.294,1.561-0.947,2.702-1.381H15.5z M11.103,10.279l0.847,0.724v-0.724
		H11.103z"/>
	<path fill="#FFFFFF" d="M91,91h-3.309v-0.922h-2.542c0.275,0.385,0.514,0.605,0.519,0.609L86.011,91H69.433l-0.012-0.358
		c10.217-0.692,14.881-4.328,15.939-5.281c0.953-1.06,4.588-5.724,5.281-15.94L91,69.432v16.577l-0.312-0.341
		c-0.005-0.006-0.225-0.242-0.61-0.518v2.541H91V91z M88.05,90.641h2.592v-2.592h-0.563v1.819l-1.858-2.177h1.5v-2.775
		c-0.446-0.267-1.028-0.518-1.703-0.592l-0.293-0.033l0.164-0.244c0.016-0.023,1.514-2.277,1.835-4.027l0.355,0.033v4.659
		c0.231,0.149,0.421,0.298,0.563,0.421V72.83c-1.047,7.174-3.559,10.983-4.693,12.391l-0.053,0.105
		c1.128-0.238,2.506,0.014,2.99,0.508c0.223,0.229,0.268,0.5,0.127,0.768c-0.158,0.301-0.379,0.484-0.656,0.547
		c-0.532,0.121-1.062-0.273-1.086-0.289l0.215-0.287c0.006,0.002,0.424,0.311,0.795,0.226c0.17-0.039,0.307-0.157,0.415-0.362
		c0.046-0.086,0.078-0.203-0.065-0.35c-0.439-0.448-1.869-0.647-2.895-0.35c-0.297,1.025-0.098,2.455,0.35,2.893
		c0.146,0.145,0.264,0.111,0.35,0.066c0.206-0.108,0.324-0.244,0.363-0.416c0.084-0.371-0.223-0.789-0.227-0.793l0.287-0.215
		c0.017,0.021,0.408,0.553,0.289,1.086c-0.062,0.276-0.246,0.498-0.546,0.655c-0.267,0.14-0.54,0.095-0.767-0.128
		c-0.496-0.484-0.748-1.86-0.508-2.989l-0.107,0.054c-1.406,1.135-5.217,3.645-12.39,4.692h12.302
		c-0.123-0.144-0.271-0.333-0.42-0.563h-4.659l-0.032-0.355c1.75-0.322,4.003-1.819,4.025-1.835l0.244-0.164l0.033,0.294
		c0.074,0.676,0.325,1.257,0.591,1.702h2.776v-1.501l2.178,1.859H88.05V90.641L88.05,90.641z M88.05,89.719h0.848l-0.848-0.723
		V89.719z M81.307,89.719H84.5c-0.208-0.385-0.396-0.851-0.491-1.381C83.54,88.634,82.448,89.286,81.307,89.719z M88.997,88.049
		l0.723,0.848v-0.848H88.997z M88.339,84.009c0.529,0.095,0.994,0.282,1.381,0.491v-3.193C89.286,82.449,88.634,83.54,88.339,84.009
		z"/>
	<g>
		<g>
			<path fill="#FFFFFF" d="M40.686,38.526c1.282,0,2.329,2.083,2.329,4.656c0,2.572-1.047,4.657-2.329,4.657
				c-1.29,0-2.327-2.085-2.327-4.657C38.358,40.609,39.396,38.526,40.686,38.526z"/>
			<path fill="#FFFFFF" d="M59.312,38.526c1.291,0,2.328,2.083,2.328,4.656c0,2.572-1.037,4.657-2.328,4.657
				c-1.282,0-2.327-2.085-2.327-4.657C56.985,40.609,58.03,38.526,59.312,38.526z"/>
			<path fill="#FFFFFF" d="M35.448,51.291c1.682,0,3.043,0.681,3.043,1.522s-1.361,1.522-3.043,1.522
				c-1.692,0-3.056-0.681-3.056-1.522S33.756,51.291,35.448,51.291z"/>
			<path fill="#FFFFFF" d="M64.55,51.291c1.693,0,3.055,0.681,3.055,1.522s-1.361,1.522-3.055,1.522
				c-1.681,0-3.044-0.681-3.044-1.522S62.869,51.291,64.55,51.291z"/>
		</g>
		<path fill="#FFFFFF" d="M50,74.868c-13.709,0-24.86-11.159-24.86-24.869c0-13.708,11.151-24.867,24.86-24.867
			s24.868,11.159,24.868,24.867C74.868,63.709,63.709,74.868,50,74.868z M50,25.534c-13.484,0-24.465,10.981-24.465,24.465
			c0,13.485,10.98,24.466,24.465,24.466c13.492,0,24.464-10.98,24.464-24.466C74.464,36.516,63.492,25.534,50,25.534z"/>
		<path fill="#FFFFFF" d="M56.438,85.195c-0.117,0-0.207-0.089-0.207-0.197V73.815c0-0.108,0.09-0.206,0.207-0.206
			c0.108,0,0.197,0.098,0.197,0.206v11.183C56.635,85.106,56.546,85.195,56.438,85.195z"/>
		<path fill="#FFFFFF" d="M56.438,26.389c-0.117,0-0.207-0.097-0.207-0.204V15.002c0-0.108,0.09-0.197,0.207-0.197
			c0.108,0,0.197,0.089,0.197,0.197v11.183C56.635,26.292,56.546,26.389,56.438,26.389z"/>
		<path fill="#FFFFFF" d="M50,92.5c-0.108,0-0.197-0.089-0.197-0.198v-17.64c0-0.109,0.089-0.197,0.197-0.197
			s0.196,0.088,0.196,0.197v17.64C50.196,92.411,50.107,92.5,50,92.5z"/>
		<path fill="#FFFFFF" d="M50,25.534c-0.108,0-0.197-0.089-0.197-0.196V7.696C49.803,7.589,49.892,7.5,50,7.5
			s0.196,0.089,0.196,0.196v17.642C50.196,25.445,50.107,25.534,50,25.534z"/>
		<path fill="#FFFFFF" d="M43.57,85.195c-0.117,0-0.207-0.089-0.207-0.197V73.815c0-0.107,0.09-0.206,0.207-0.206
			c0.107,0,0.198,0.099,0.198,0.206v11.183C43.769,85.106,43.678,85.195,43.57,85.195z"/>
		<path fill="#FFFFFF" d="M43.57,26.389c-0.117,0-0.207-0.097-0.207-0.204V15.002c0-0.108,0.09-0.197,0.207-0.197
			c0.107,0,0.198,0.089,0.198,0.197v11.183C43.769,26.292,43.678,26.389,43.57,26.389z"/>
		<path fill="#FFFFFF" d="M26.184,56.636H14.922c-0.117,0-0.206-0.089-0.206-0.198c0-0.117,0.089-0.205,0.206-0.205h11.262
			c0.117,0,0.206,0.088,0.206,0.205C26.389,56.547,26.29,56.636,26.184,56.636z"/>
		<path fill="#FFFFFF" d="M85.076,56.636H73.814c-0.108,0-0.196-0.089-0.196-0.198c0-0.117,0.088-0.205,0.196-0.205h11.262
			c0.118,0,0.207,0.088,0.207,0.205C85.283,56.547,85.194,56.636,85.076,56.636z"/>
		<path fill="#FFFFFF" d="M25.338,50.197H6.643c-0.108,0-0.196-0.09-0.196-0.198c0-0.106,0.088-0.197,0.196-0.197h18.695
			c0.108,0,0.197,0.091,0.197,0.197C25.535,50.107,25.446,50.197,25.338,50.197z"/>
		<path fill="#FFFFFF" stroke="#A01C38" stroke-width="0.8959" stroke-linecap="round" stroke-miterlimit="10" d="M25.338,49.999"/>
		<path fill="#FFFFFF" d="M93.355,50.197H74.661c-0.108,0-0.198-0.09-0.198-0.198c0-0.106,0.09-0.197,0.198-0.197h18.694
			c0.107,0,0.198,0.091,0.198,0.197C93.554,50.107,93.463,50.197,93.355,50.197z"/>
		<path fill="#FFFFFF" d="M26.184,43.768H14.922c-0.117,0-0.206-0.09-0.206-0.205c0-0.109,0.089-0.199,0.206-0.199h11.262
			c0.117,0,0.206,0.09,0.206,0.199C26.39,43.678,26.301,43.768,26.184,43.768z"/>
		<path fill="#FFFFFF" d="M85.076,43.768H73.814c-0.108,0-0.196-0.09-0.196-0.205c0-0.109,0.088-0.199,0.196-0.199h11.262
			c0.118,0,0.207,0.09,0.207,0.199C85.283,43.678,85.194,43.768,85.076,43.768z"/>
	</g>
</g>
</svg>
