<?xml version="1.0" encoding="utf-8"?>
<!-- Generator: Adobe Illustrator 16.0.4, SVG Export Plug-In . SVG Version: 6.00 Build 0)  -->
<!DOCTYPE svg PUBLIC "-//W3C//DTD SVG 1.1//EN" "http://www.w3.org/Graphics/SVG/1.1/DTD/svg11.dtd">
<svg version="1.1" id="Layer_1" xmlns="http://www.w3.org/2000/svg" xmlns:xlink="http://www.w3.org/1999/xlink" x="0px" y="0px"
	 width="100px" height="100px" viewBox="0 0 100 100" enable-background="new 0 0 100 100" xml:space="preserve">
<symbol  id="CLUB" viewBox="-19.017 -19.303 38.033 38.606">
	<path d="M10.763,4.878c-4.281,0-7.801-3.26-8.215-7.428C2-2.544,1.45-2.524,0.896-2.522L0.543,2.821
		c4.303,0.28,7.709,3.85,7.709,8.225c0,4.562-3.693,8.258-8.256,8.258c-4.557,0-8.254-3.696-8.254-8.258
		c0-4.375,3.406-7.943,7.711-8.225l-0.357-5.345c-0.551-0.01-1.102-0.021-1.646-0.03c-0.416,4.172-3.932,7.432-8.215,7.432
		c-4.559,0-8.252-3.697-8.252-8.256c0-4.562,3.693-8.254,8.252-8.254c4.283,0,7.799,3.256,8.215,7.428
		c0.506-0.012,1.02-0.021,1.535-0.027l-0.998-15.071h4.02L1.008-4.235C1.524-4.225,2.04-4.215,2.547-4.206
		c0.414-4.17,3.934-7.426,8.215-7.426c4.559,0,8.254,3.692,8.254,8.254C19.017,1.181,15.32,4.878,10.763,4.878z"/>
</symbol>
<path fill="#FFFFFF" d="M100,90c0,5.523-4.478,10-10,10H10c-5.522,0-10-4.477-10-10V10C0,4.477,4.478,0,10,0h80
	c5.522,0,10,4.477,10,10V90z"/>
<path d="M48.357,67.747h10.564v21.327H6v-5.431c0-9.938,3.652-18.858,10.963-26.757c2.857-3.027,9.666-8.458,20.432-16.292
	c7.309-5.331,10.963-9.905,10.963-13.724c0-3.555-2.027-6.32-6.08-8.295c-3.191-1.579-6.811-2.369-10.863-2.369
	c-9.9,0-14.85,3.292-14.85,9.873c0,1.383,0.361,2.93,1.086,4.641l-9.873,4.147C6.592,31.775,6,28.846,6,26.08
	c0-6.845,2.576-12.109,7.73-15.797c4.623-3.291,10.502-4.938,17.639-4.938s13.312,1.777,18.533,5.332
	c6.014,4.016,9.02,9.414,9.02,16.193c0,6.318-3.176,12.242-9.523,17.771c-6.217,4.74-12.434,9.479-18.652,14.219
	c-7.275,6.057-11.674,12.507-13.195,19.352h30.807V67.747z"/>
<g>
	
		<use xlink:href="#CLUB"  width="38.033" height="38.606" x="-19.017" y="-19.303" transform="matrix(0.7888 0 0 -0.7888 79 51)" overflow="visible"/>
</g>
</svg>
