<?xml version="1.0" encoding="utf-8"?>
<!-- Generator: Adobe Illustrator 16.0.4, SVG Export Plug-In . SVG Version: 6.00 Build 0)  -->
<!DOCTYPE svg PUBLIC "-//W3C//DTD SVG 1.1//EN" "http://www.w3.org/Graphics/SVG/1.1/DTD/svg11.dtd">
<svg version="1.1" id="Layer_1" xmlns="http://www.w3.org/2000/svg" xmlns:xlink="http://www.w3.org/1999/xlink" x="0px" y="0px"
	 width="100px" height="100px" viewBox="0 0 100 100" enable-background="new 0 0 100 100" xml:space="preserve">
<symbol  id="DIAMOND" viewBox="-12.869 -19.302 25.738 38.604">
	<polygon fill="#B92026" points="-12.869,0.001 0.001,19.302 12.869,0.001 6.982,-8.829 0.001,-19.302 	"/>
</symbol>
<path fill="#FFFFFF" d="M100,90c0,5.523-4.478,10-10,10H10c-5.522,0-10-4.477-10-10V10C0,4.477,4.478,0,10,0h80
	c5.522,0,10,4.477,10,10V90z"/>
<path fill="#B92226" d="M48.357,70.537h10.564v21.327H6v-5.431c0-9.938,3.652-18.858,10.963-26.757
	c2.857-3.027,9.666-8.458,20.432-16.292c7.309-5.331,10.963-9.905,10.963-13.724c0-3.555-2.027-6.32-6.08-8.295
	c-3.191-1.579-6.811-2.369-10.863-2.369c-9.9,0-14.85,3.292-14.85,9.873c0,1.383,0.361,2.93,1.086,4.641l-9.873,4.147
	C6.592,34.565,6,31.636,6,28.87c0-6.845,2.576-12.109,7.73-15.797c4.623-3.291,10.502-4.938,17.639-4.938s13.312,1.777,18.533,5.332
	c6.014,4.016,9.02,9.414,9.02,16.193c0,6.318-3.176,12.242-9.523,17.771c-6.217,4.74-12.434,9.479-18.652,14.219
	c-7.275,6.057-11.674,12.507-13.195,19.352h30.807V70.537z"/>
<g>
	
		<use xlink:href="#DIAMOND"  width="25.738" height="38.604" x="-12.869" y="-19.302" transform="matrix(0.777 0 0 -0.777 79 55.1152)" overflow="visible"/>
</g>
</svg>
