<?xml version="1.0" encoding="utf-8"?>
<!-- Generator: Adobe Illustrator 16.0.4, SVG Export Plug-In . SVG Version: 6.00 Build 0)  -->
<!DOCTYPE svg PUBLIC "-//W3C//DTD SVG 1.1//EN" "http://www.w3.org/Graphics/SVG/1.1/DTD/svg11.dtd">
<svg version="1.1" id="Layer_1" xmlns="http://www.w3.org/2000/svg" xmlns:xlink="http://www.w3.org/1999/xlink" x="0px" y="0px"
	 width="100px" height="100px" viewBox="0 0 100 100" enable-background="new 0 0 100 100" xml:space="preserve">
<symbol  id="HEART" viewBox="-17.833 -19.301 35.664 38.601">
	<path fill="#B92026" d="M-0.001-19.301L-16.198,4.535c-2.934,4.315-1.811,10.195,2.506,13.131
		c4.32,2.934,10.197,1.811,13.131-2.506l0.56-0.824l0.559,0.824c2.934,4.315,8.814,5.438,13.133,2.506
		c4.316-2.936,5.441-8.815,2.506-13.131L-0.001-19.301z"/>
</symbol>
<path fill="#FFFFFF" d="M100,90c0,5.523-4.478,10-10,10H10c-5.522,0-10-4.477-10-10V10C0,4.477,4.478,0,10,0h80
	c5.522,0,10,4.477,10,10V90z"/>
<path fill="#B92226" d="M48.357,70.537h10.564v21.327H6v-5.431c0-9.938,3.652-18.858,10.963-26.758
	c2.857-3.026,9.666-8.457,20.432-16.291c7.309-5.332,10.963-9.906,10.963-13.725c0-3.555-2.027-6.319-6.08-8.294
	c-3.191-1.579-6.811-2.369-10.863-2.369c-9.9,0-14.85,3.292-14.85,9.873c0,1.383,0.361,2.93,1.086,4.641l-9.873,4.147
	C6.592,34.564,6,31.635,6,28.87c0-6.845,2.576-12.11,7.73-15.798c4.623-3.29,10.502-4.937,17.639-4.937s13.312,1.777,18.533,5.332
	c6.014,4.016,9.02,9.414,9.02,16.192c0,6.319-3.176,12.243-9.523,17.772c-6.217,4.739-12.434,9.479-18.652,14.218
	c-7.275,6.057-11.674,12.508-13.195,19.353h30.807V70.537z"/>
<g>
	
		<use xlink:href="#HEART"  width="35.664" height="38.601" x="-17.833" y="-19.301" transform="matrix(0.8412 0 0 -0.8412 79 51)" overflow="visible"/>
</g>
</svg>
