<?xml version="1.0" encoding="utf-8"?>
<!-- Generator: Adobe Illustrator 16.0.4, SVG Export Plug-In . SVG Version: 6.00 Build 0)  -->
<!DOCTYPE svg PUBLIC "-//W3C//DTD SVG 1.1//EN" "http://www.w3.org/Graphics/SVG/1.1/DTD/svg11.dtd">
<svg version="1.1" id="Layer_1" xmlns="http://www.w3.org/2000/svg" xmlns:xlink="http://www.w3.org/1999/xlink" x="0px" y="0px"
	 width="100px" height="100px" viewBox="0 0 100 100" enable-background="new 0 0 100 100" xml:space="preserve">
<symbol  id="SPADE" viewBox="-14.649 -18.258 29.298 36.517">
	<path d="M13.306-1.319L-0.001,18.259L-13.306-1.319c-2.41-3.543-1.49-8.377,2.059-10.782c3.291-2.244,7.686-1.607,10.23,1.334
		l-0.994-7.49h4.02l-0.992,7.49c2.543-2.941,6.938-3.572,10.229-1.334C14.794-9.696,15.716-4.868,13.306-1.319z"/>
</symbol>
<path fill="#FFFFFF" d="M100,90c0,5.523-4.478,10-10,10H10c-5.522,0-10-4.477-10-10V10C0,4.477,4.478,0,10,0h80
	c5.522,0,10,4.477,10,10V90z"/>
<path d="M48.357,70.537h10.564v21.327H6v-5.431c0-9.938,3.652-18.858,10.963-26.758c2.857-3.026,9.666-8.457,20.432-16.291
	c7.309-5.332,10.963-9.906,10.963-13.725c0-3.555-2.027-6.319-6.08-8.294c-3.191-1.579-6.811-2.369-10.863-2.369
	c-9.9,0-14.85,3.292-14.85,9.873c0,1.383,0.361,2.93,1.086,4.641l-9.873,4.147C6.592,34.564,6,31.635,6,28.87
	c0-6.845,2.576-12.11,7.73-15.798c4.623-3.29,10.502-4.937,17.639-4.937s13.312,1.777,18.533,5.332
	c6.014,4.016,9.02,9.414,9.02,16.192c0,6.319-3.176,12.243-9.523,17.772c-6.217,4.739-12.434,9.479-18.652,14.218
	c-7.275,6.057-11.674,12.508-13.195,19.353h30.807V70.537z"/>
<g>
	
		<use xlink:href="#SPADE"  width="29.298" height="36.517" x="-14.649" y="-18.258" transform="matrix(1.024 0 0 -1.024 79 51.0005)" overflow="visible"/>
</g>
</svg>
