<?xml version="1.0" encoding="utf-8"?>
<!-- Generator: Adobe Illustrator 16.0.4, SVG Export Plug-In . SVG Version: 6.00 Build 0)  -->
<!DOCTYPE svg PUBLIC "-//W3C//DTD SVG 1.1//EN" "http://www.w3.org/Graphics/SVG/1.1/DTD/svg11.dtd">
<svg version="1.1" id="Layer_1" xmlns="http://www.w3.org/2000/svg" xmlns:xlink="http://www.w3.org/1999/xlink" x="0px" y="0px"
	 width="100px" height="100px" viewBox="0 0 100 100" enable-background="new 0 0 100 100" xml:space="preserve">
<symbol  id="CLUB" viewBox="-19.017 -19.303 38.033 38.606">
	<path d="M10.763,4.878c-4.281,0-7.801-3.26-8.215-7.428C2-2.544,1.45-2.524,0.896-2.522L0.543,2.821
		c4.303,0.28,7.709,3.85,7.709,8.225c0,4.562-3.693,8.258-8.256,8.258c-4.557,0-8.254-3.696-8.254-8.258
		c0-4.375,3.406-7.943,7.711-8.225l-0.357-5.345c-0.551-0.01-1.102-0.021-1.646-0.03c-0.416,4.172-3.932,7.432-8.215,7.432
		c-4.559,0-8.252-3.697-8.252-8.256c0-4.562,3.693-8.254,8.252-8.254c4.283,0,7.799,3.256,8.215,7.428
		c0.506-0.012,1.02-0.021,1.535-0.027l-0.998-15.071h4.02L1.008-4.235C1.524-4.225,2.04-4.215,2.547-4.206
		c0.414-4.17,3.934-7.426,8.215-7.426c4.559,0,8.254,3.692,8.254,8.254C19.017,1.181,15.32,4.878,10.763,4.878z"/>
</symbol>
<path fill="#FFFFFF" d="M100,90c0,5.523-4.478,10-10,10H10c-5.522,0-10-4.477-10-10V10C0,4.477,4.478,0,10,0h80
	c5.522,0,10,4.477,10,10V90z"/>
<path d="M33.054,90.654c-6.319,0-11.981-2.173-16.982-6.518C11.529,80.188,8.172,75.054,6,68.734l10.093-3.555
	c1.386,4.119,3.464,7.487,6.234,10.102c3.165,3.009,6.762,4.512,10.785,4.512c5.014,0,9.334-1.969,12.962-5.907
	c3.629-3.938,5.443-8.403,5.443-13.393c0-4.921-1.552-8.927-4.654-12.012s-7.162-4.628-12.179-4.628
	c-2.312,0-4.126,0.296-5.446,0.889c-1.32,0.592-2.904,1.744-4.753,3.455l-7.624-7.504L41.446,17.59H17.75v10.564H7.186V6.729h54.008
	v6.801L40.135,33.455c6.655,1.252,11.979,4.364,15.966,9.336c3.986,4.973,5.981,10.883,5.981,17.731
	c0,7.97-2.863,14.985-8.59,21.043C47.766,87.625,40.953,90.654,33.054,90.654z"/>
<g>
	
		<use xlink:href="#CLUB"  width="38.033" height="38.606" x="-19.017" y="-19.303" transform="matrix(0.7888 0 0 -0.7888 79 51)" overflow="visible"/>
</g>
</svg>
