<?xml version="1.0" encoding="utf-8"?>
<!-- Generator: Adobe Illustrator 16.0.4, SVG Export Plug-In . SVG Version: 6.00 Build 0)  -->
<!DOCTYPE svg PUBLIC "-//W3C//DTD SVG 1.1//EN" "http://www.w3.org/Graphics/SVG/1.1/DTD/svg11.dtd">
<svg version="1.1" id="Layer_1" xmlns="http://www.w3.org/2000/svg" xmlns:xlink="http://www.w3.org/1999/xlink" x="0px" y="0px"
	 width="100px" height="100px" viewBox="0 0 100 100" enable-background="new 0 0 100 100" xml:space="preserve">
<symbol  id="DIAMOND" viewBox="-12.869 -19.302 25.738 38.604">
	<polygon fill="#B92026" points="-12.869,0.001 0.001,19.302 12.869,0.001 6.982,-8.829 0.001,-19.302 	"/>
</symbol>
<path fill="#FFFFFF" d="M100,90c0,5.523-4.478,10-10,10H10c-5.522,0-10-4.477-10-10V10C0,4.477,4.478,0,10,0h80
	c5.522,0,10,4.477,10,10V90z"/>
<path fill="#B92226" d="M33.054,91.963c-6.319,0-11.981-2.173-16.982-6.518C11.529,81.496,8.172,76.362,6,70.043l10.093-3.555
	c1.386,4.119,3.464,7.487,6.234,10.102c3.165,3.009,6.762,4.512,10.785,4.512c5.014,0,9.334-1.969,12.962-5.907
	c3.629-3.938,5.443-8.403,5.443-13.393c0-4.921-1.552-8.927-4.654-12.012s-7.162-4.628-12.179-4.628
	c-2.312,0-4.126,0.296-5.446,0.889c-1.32,0.592-2.904,1.744-4.753,3.455l-7.624-7.504l24.585-23.104H17.75v10.564H7.186V8.037
	h54.008v6.801L40.135,34.764c6.655,1.252,11.979,4.364,15.966,9.336c3.986,4.973,5.981,10.883,5.981,17.731
	c0,7.97-2.863,14.985-8.59,21.043C47.766,88.934,40.953,91.963,33.054,91.963z"/>
<g>
	
		<use xlink:href="#DIAMOND"  width="25.738" height="38.604" x="-12.869" y="-19.302" transform="matrix(0.777 0 0 -0.777 79 55.1152)" overflow="visible"/>
</g>
</svg>
