<?xml version="1.0" encoding="utf-8"?>
<!-- Generator: Adobe Illustrator 16.0.4, SVG Export Plug-In . SVG Version: 6.00 Build 0)  -->
<!DOCTYPE svg PUBLIC "-//W3C//DTD SVG 1.1//EN" "http://www.w3.org/Graphics/SVG/1.1/DTD/svg11.dtd">
<svg version="1.1" id="Layer_1" xmlns="http://www.w3.org/2000/svg" xmlns:xlink="http://www.w3.org/1999/xlink" x="0px" y="0px"
	 width="100px" height="100px" viewBox="0 0 100 100" enable-background="new 0 0 100 100" xml:space="preserve">
<symbol  id="HEART" viewBox="-17.833 -19.301 35.664 38.601">
	<path fill="#B92026" d="M-0.001-19.301L-16.198,4.535c-2.934,4.315-1.811,10.195,2.506,13.131
		c4.32,2.934,10.197,1.811,13.131-2.506l0.56-0.824l0.559,0.824c2.934,4.315,8.814,5.438,13.133,2.506
		c4.316-2.936,5.441-8.815,2.506-13.131L-0.001-19.301z"/>
</symbol>
<path fill="#FFFFFF" d="M100,90c0,5.523-4.478,10-10,10H10c-5.522,0-10-4.477-10-10V10C0,4.477,4.478,0,10,0h80
	c5.522,0,10,4.477,10,10V90z"/>
<path fill="#B92226" d="M33.054,91.963c-6.319,0-11.981-2.173-16.982-6.517C11.529,81.497,8.172,76.362,6,70.043l10.093-3.554
	c1.386,4.119,3.464,7.486,6.234,10.102c3.165,3.008,6.762,4.511,10.785,4.511c5.014,0,9.334-1.969,12.962-5.907
	c3.629-3.938,5.443-8.403,5.443-13.393c0-4.921-1.552-8.926-4.654-12.012c-3.103-3.085-7.162-4.628-12.179-4.628
	c-2.312,0-4.126,0.296-5.446,0.889c-1.32,0.592-2.904,1.744-4.753,3.455l-7.624-7.504l24.585-23.104H17.75v10.564H7.186V8.037
	h54.008v6.801L40.135,34.764c6.655,1.253,11.979,4.364,15.966,9.337c3.986,4.972,5.981,10.883,5.981,17.73
	c0,7.97-2.863,14.985-8.59,21.043C47.766,88.935,40.953,91.963,33.054,91.963z"/>
<g>
	
		<use xlink:href="#HEART"  width="35.664" height="38.601" x="-17.833" y="-19.301" transform="matrix(0.8412 0 0 -0.8412 79 51)" overflow="visible"/>
</g>
</svg>
