<?xml version="1.0" encoding="utf-8"?>
<!-- Generator: Adobe Illustrator 16.0.4, SVG Export Plug-In . SVG Version: 6.00 Build 0)  -->
<!DOCTYPE svg PUBLIC "-//W3C//DTD SVG 1.1//EN" "http://www.w3.org/Graphics/SVG/1.1/DTD/svg11.dtd">
<svg version="1.1" id="Layer_1" xmlns="http://www.w3.org/2000/svg" xmlns:xlink="http://www.w3.org/1999/xlink" x="0px" y="0px"
	 width="100px" height="100px" viewBox="0 0 100 100" enable-background="new 0 0 100 100" xml:space="preserve">
<symbol  id="SPADE" viewBox="-14.649 -18.258 29.298 36.517">
	<path d="M13.306-1.319L-0.001,18.259L-13.306-1.319c-2.41-3.543-1.49-8.377,2.059-10.782c3.291-2.244,7.686-1.607,10.23,1.334
		l-0.994-7.49h4.02l-0.992,7.49c2.543-2.941,6.938-3.572,10.229-1.334C14.794-9.696,15.716-4.868,13.306-1.319z"/>
</symbol>
<path fill="#FFFFFF" d="M100,90c0,5.523-4.478,10-10,10H10c-5.522,0-10-4.477-10-10V10C0,4.477,4.478,0,10,0h80
	c5.522,0,10,4.477,10,10V90z"/>
<path d="M33.054,91.963c-6.319,0-11.981-2.173-16.982-6.517C11.529,81.497,8.172,76.362,6,70.043l10.093-3.554
	c1.386,4.119,3.464,7.486,6.234,10.102c3.165,3.008,6.762,4.511,10.785,4.511c5.014,0,9.334-1.969,12.962-5.907
	c3.629-3.938,5.443-8.403,5.443-13.393c0-4.921-1.552-8.926-4.654-12.012c-3.103-3.085-7.162-4.628-12.179-4.628
	c-2.312,0-4.126,0.296-5.446,0.889c-1.32,0.592-2.904,1.744-4.753,3.455l-7.624-7.504l24.585-23.104H17.75v10.564H7.186V8.037
	h54.008v6.801L40.135,34.764c6.655,1.253,11.979,4.364,15.966,9.337c3.986,4.972,5.981,10.883,5.981,17.73
	c0,7.97-2.863,14.985-8.59,21.043C47.766,88.935,40.953,91.963,33.054,91.963z"/>
<g>
	
		<use xlink:href="#SPADE"  width="29.298" height="36.517" x="-14.649" y="-18.258" transform="matrix(1.024 0 0 -1.024 79 51.0005)" overflow="visible"/>
</g>
</svg>
