<?xml version="1.0" encoding="utf-8"?>
<!-- Generator: Adobe Illustrator 16.0.4, SVG Export Plug-In . SVG Version: 6.00 Build 0)  -->
<!DOCTYPE svg PUBLIC "-//W3C//DTD SVG 1.1//EN" "http://www.w3.org/Graphics/SVG/1.1/DTD/svg11.dtd">
<svg version="1.1" id="Layer_1" xmlns="http://www.w3.org/2000/svg" xmlns:xlink="http://www.w3.org/1999/xlink" x="0px" y="0px"
	 width="100px" height="100px" viewBox="0 0 100 100" enable-background="new 0 0 100 100" xml:space="preserve">
<symbol  id="CLUB" viewBox="-19.017 -19.303 38.033 38.606">
	<path d="M10.763,4.878c-4.281,0-7.801-3.26-8.215-7.428C2-2.544,1.45-2.524,0.896-2.522L0.543,2.821
		c4.303,0.28,7.709,3.85,7.709,8.225c0,4.562-3.693,8.258-8.256,8.258c-4.557,0-8.254-3.696-8.254-8.258
		c0-4.375,3.406-7.943,7.711-8.225l-0.357-5.345c-0.551-0.01-1.102-0.021-1.646-0.03c-0.416,4.172-3.932,7.432-8.215,7.432
		c-4.559,0-8.252-3.697-8.252-8.256c0-4.562,3.693-8.254,8.252-8.254c4.283,0,7.799,3.256,8.215,7.428
		c0.506-0.012,1.02-0.021,1.535-0.027l-0.998-15.071h4.02L1.008-4.235C1.524-4.225,2.04-4.215,2.547-4.206
		c0.414-4.17,3.934-7.426,8.215-7.426c4.559,0,8.254,3.692,8.254,8.254C19.017,1.181,15.32,4.878,10.763,4.878z"/>
</symbol>
<path fill="#FFFFFF" d="M100,90c0,5.523-4.478,10-10,10H10c-5.522,0-10-4.477-10-10V10C0,4.477,4.478,0,10,0h80
	c5.522,0,10,4.477,10,10V90z"/>
<path d="M32.462,91.049c-5.925,0-11.354-2.041-16.292-6.121C11.826,81.176,8.436,76.337,6,70.413l9.896-4.147
	c1.582,3.857,3.694,7.025,6.332,9.51c3.102,2.942,6.531,4.412,10.292,4.412c5.278,0,9.665-2.455,13.161-7.371
	c3.166-4.391,4.75-9.271,4.75-14.645c0-5.439-1.584-10.287-4.752-14.549c-3.431-4.651-7.82-6.978-13.164-6.978
	c-4.554,0-9.074,2.437-13.561,7.306l-7.721-4.541V6.729H51.32V17.59H21.799v10.564c3.431-1.58,6.961-2.37,10.591-2.37
	c8.315,0,15.243,3.392,20.786,10.17c5.213,6.319,7.82,13.724,7.82,22.216c0,8.491-2.566,15.963-7.701,22.412
	C47.699,87.561,40.756,91.049,32.462,91.049z"/>
<g>
	
		<use xlink:href="#CLUB"  width="38.033" height="38.606" x="-19.017" y="-19.303" transform="matrix(0.7888 0 0 -0.7888 79 51)" overflow="visible"/>
</g>
</svg>
