<?xml version="1.0" encoding="utf-8"?>
<!-- Generator: Adobe Illustrator 16.0.4, SVG Export Plug-In . SVG Version: 6.00 Build 0)  -->
<!DOCTYPE svg PUBLIC "-//W3C//DTD SVG 1.1//EN" "http://www.w3.org/Graphics/SVG/1.1/DTD/svg11.dtd">
<svg version="1.1" id="Layer_1" xmlns="http://www.w3.org/2000/svg" xmlns:xlink="http://www.w3.org/1999/xlink" x="0px" y="0px"
	 width="100px" height="100px" viewBox="0 0 100 100" enable-background="new 0 0 100 100" xml:space="preserve">
<symbol  id="DIAMOND" viewBox="-12.869 -19.302 25.738 38.604">
	<polygon fill="#B92026" points="-12.869,0.001 0.001,19.302 12.869,0.001 6.982,-8.829 0.001,-19.302 	"/>
</symbol>
<path fill="#FFFFFF" d="M100,90c0,5.523-4.478,10-10,10H10c-5.522,0-10-4.477-10-10V10C0,4.477,4.478,0,10,0h80
	c5.522,0,10,4.477,10,10V90z"/>
<path fill="#B92226" d="M32.462,92.16c-5.925,0-11.354-2.041-16.292-6.121C11.826,82.287,8.436,77.448,6,71.524l9.896-4.147
	c1.582,3.857,3.694,7.025,6.332,9.51c3.102,2.942,6.531,4.412,10.292,4.412c5.278,0,9.665-2.455,13.161-7.371
	c3.166-4.391,4.75-9.271,4.75-14.645c0-5.439-1.584-10.287-4.752-14.549c-3.431-4.651-7.82-6.978-13.164-6.978
	c-4.554,0-9.074,2.437-13.561,7.306l-7.721-4.541V7.84H51.32v10.861H21.799v10.564c3.431-1.58,6.961-2.37,10.591-2.37
	c8.315,0,15.243,3.392,20.786,10.17c5.213,6.319,7.82,13.724,7.82,22.216c0,8.491-2.566,15.963-7.701,22.412
	C47.699,88.672,40.756,92.16,32.462,92.16z"/>
<g>
	
		<use xlink:href="#DIAMOND"  width="25.738" height="38.604" x="-12.869" y="-19.302" transform="matrix(0.777 0 0 -0.777 79 55.1152)" overflow="visible"/>
</g>
</svg>
