<?xml version="1.0" encoding="utf-8"?>
<!-- Generator: Adobe Illustrator 16.0.4, SVG Export Plug-In . SVG Version: 6.00 Build 0)  -->
<!DOCTYPE svg PUBLIC "-//W3C//DTD SVG 1.1//EN" "http://www.w3.org/Graphics/SVG/1.1/DTD/svg11.dtd">
<svg version="1.1" id="Layer_1" xmlns="http://www.w3.org/2000/svg" xmlns:xlink="http://www.w3.org/1999/xlink" x="0px" y="0px"
	 width="100px" height="100px" viewBox="0 0 100 100" enable-background="new 0 0 100 100" xml:space="preserve">
<symbol  id="CLUB" viewBox="-19.017 -19.303 38.033 38.606">
	<path d="M10.763,4.878c-4.281,0-7.801-3.26-8.215-7.428C2-2.544,1.45-2.524,0.896-2.522L0.543,2.821
		c4.303,0.28,7.709,3.85,7.709,8.225c0,4.562-3.693,8.258-8.256,8.258c-4.557,0-8.254-3.696-8.254-8.258
		c0-4.375,3.406-7.943,7.711-8.225l-0.357-5.345c-0.551-0.01-1.102-0.021-1.646-0.03c-0.416,4.172-3.932,7.432-8.215,7.432
		c-4.559,0-8.252-3.697-8.252-8.256c0-4.562,3.693-8.254,8.252-8.254c4.283,0,7.799,3.256,8.215,7.428
		c0.506-0.012,1.02-0.021,1.535-0.027l-0.998-15.071h4.02L1.008-4.235C1.524-4.225,2.04-4.215,2.547-4.206
		c0.414-4.17,3.934-7.426,8.215-7.426c4.559,0,8.254,3.692,8.254,8.254C19.017,1.181,15.32,4.878,10.763,4.878z"/>
</symbol>
<path fill="#FFFFFF" d="M100,90c0,5.523-4.478,10-10,10H10c-5.522,0-10-4.477-10-10V10C0,4.477,4.478,0,10,0h80
	c5.522,0,10,4.477,10,10V90z"/>
<path d="M6.297,54.812h-0.1C6.064,55.076,6,52.739,6,47.803c0-11.585,1.58-20.898,4.74-27.942
	c4.475-9.677,11.812-14.515,22.018-14.515c5.002,0,9.643,1.35,13.922,4.049c4.08,2.633,7.404,6.188,9.973,10.663l-9.184,5.529
	c-3.555-6.253-8.459-9.38-14.711-9.38c-8.164,0-13.23,6.09-15.205,18.266c4.541-4.014,9.576-6.022,15.105-6.022
	c8.162,0,14.811,3.392,19.945,10.17c4.605,6.122,6.912,13.429,6.912,21.919c0,7.899-2.469,14.877-7.406,20.932
	c-5.268,6.387-11.75,9.578-19.451,9.578c-3.818,0-7.799-1.252-11.947-3.752c-4.41-2.632-7.932-7.471-10.564-14.514
	C8.105,67.32,6.822,61.329,6.297,54.812z M32.658,80.188c4.74,0,8.689-2.166,11.85-6.501c2.961-3.94,4.441-8.339,4.441-13.198
	c0-5.449-1.35-10.178-4.047-14.184c-3.029-4.662-7.109-6.994-12.244-6.994c-3.752,0-7.143,1.807-10.17,5.419
	c-2.502,3.021-4.344,6.565-5.529,10.638c0.594,6.041,1.908,11.229,3.949,15.561C23.805,77.103,27.723,80.188,32.658,80.188z"/>
<g>
	
		<use xlink:href="#CLUB"  width="38.033" height="38.606" x="-19.017" y="-19.303" transform="matrix(0.7888 0 0 -0.7888 79 50)" overflow="visible"/>
</g>
</svg>
