<?xml version="1.0" encoding="utf-8"?>
<!-- Generator: Adobe Illustrator 16.0.4, SVG Export Plug-In . SVG Version: 6.00 Build 0)  -->
<!DOCTYPE svg PUBLIC "-//W3C//DTD SVG 1.1//EN" "http://www.w3.org/Graphics/SVG/1.1/DTD/svg11.dtd">
<svg version="1.1" id="Layer_1" xmlns="http://www.w3.org/2000/svg" xmlns:xlink="http://www.w3.org/1999/xlink" x="0px" y="0px"
	 width="100px" height="100px" viewBox="0 0 100 100" enable-background="new 0 0 100 100" xml:space="preserve">
<symbol  id="DIAMOND" viewBox="-12.869 -19.302 25.738 38.604">
	<polygon fill="#B92026" points="-12.869,0.001 0.001,19.302 12.869,0.001 6.982,-8.829 0.001,-19.302 	"/>
</symbol>
<path fill="#FFFFFF" d="M100,90c0,5.523-4.478,10-10,10H10c-5.522,0-10-4.477-10-10V10C0,4.477,4.478,0,10,0h80
	c5.522,0,10,4.477,10,10V90z"/>
<path fill="#B92226" d="M6.297,56.615h-0.1C6.064,56.879,6,54.542,6,49.605c0-11.585,1.58-20.898,4.74-27.942
	c4.475-9.677,11.812-14.515,22.018-14.515c5.002,0,9.643,1.35,13.922,4.049c4.08,2.633,7.404,6.188,9.973,10.663l-9.184,5.529
	c-3.555-6.253-8.459-9.38-14.711-9.38c-8.164,0-13.23,6.09-15.205,18.266c4.541-4.014,9.576-6.022,15.105-6.022
	c8.162,0,14.811,3.392,19.945,10.17c4.605,6.122,6.912,13.429,6.912,21.919c0,7.899-2.469,14.877-7.406,20.932
	c-5.268,6.387-11.75,9.578-19.451,9.578c-3.818,0-7.799-1.252-11.947-3.752c-4.41-2.632-7.932-7.471-10.564-14.514
	C8.105,69.123,6.822,63.132,6.297,56.615z M32.658,81.99c4.74,0,8.689-2.166,11.85-6.501c2.961-3.94,4.441-8.339,4.441-13.198
	c0-5.449-1.35-10.178-4.047-14.184c-3.029-4.662-7.109-6.994-12.244-6.994c-3.752,0-7.143,1.807-10.17,5.419
	c-2.502,3.021-4.344,6.565-5.529,10.638c0.594,6.041,1.908,11.229,3.949,15.561C23.805,78.905,27.723,81.99,32.658,81.99z"/>
<g>
	
		<use xlink:href="#DIAMOND"  width="25.738" height="38.604" x="-12.869" y="-19.302" transform="matrix(0.777 0 0 -0.777 79 54.1152)" overflow="visible"/>
</g>
</svg>
