<?xml version="1.0" encoding="utf-8"?>
<!-- Generator: Adobe Illustrator 16.0.4, SVG Export Plug-In . SVG Version: 6.00 Build 0)  -->
<!DOCTYPE svg PUBLIC "-//W3C//DTD SVG 1.1//EN" "http://www.w3.org/Graphics/SVG/1.1/DTD/svg11.dtd">
<svg version="1.1" id="Layer_1" xmlns="http://www.w3.org/2000/svg" xmlns:xlink="http://www.w3.org/1999/xlink" x="0px" y="0px"
	 width="100px" height="100px" viewBox="0 0 100 100" enable-background="new 0 0 100 100" xml:space="preserve">
<symbol  id="SPADE" viewBox="-14.649 -18.258 29.298 36.517">
	<path d="M13.306-1.319L-0.001,18.259L-13.306-1.319c-2.41-3.543-1.49-8.377,2.059-10.782c3.291-2.244,7.686-1.607,10.23,1.334
		l-0.994-7.49h4.02l-0.992,7.49c2.543-2.941,6.938-3.572,10.229-1.334C14.794-9.696,15.716-4.868,13.306-1.319z"/>
</symbol>
<path fill="#FFFFFF" d="M100,90c0,5.523-4.478,10-10,10H10c-5.522,0-10-4.477-10-10V10C0,4.477,4.478,0,10,0h80
	c5.522,0,10,4.477,10,10V90z"/>
<path d="M6.297,56.615h-0.1C6.064,56.879,6,54.542,6,49.604c0-11.584,1.58-20.897,4.74-27.941
	c4.475-9.677,11.812-14.515,22.018-14.515c5.002,0,9.643,1.35,13.922,4.048c4.08,2.634,7.404,6.188,9.973,10.664l-9.184,5.529
	c-3.555-6.253-8.459-9.38-14.711-9.38c-8.164,0-13.23,6.089-15.205,18.266c4.541-4.014,9.576-6.022,15.105-6.022
	c8.162,0,14.811,3.391,19.945,10.17c4.605,6.121,6.912,13.428,6.912,21.919c0,7.899-2.469,14.877-7.406,20.932
	c-5.268,6.386-11.75,9.578-19.451,9.578c-3.818,0-7.799-1.252-11.947-3.752c-4.41-2.632-7.932-7.471-10.564-14.515
	C8.105,69.122,6.822,63.132,6.297,56.615z M32.658,81.99c4.74,0,8.689-2.166,11.85-6.501c2.961-3.94,4.441-8.339,4.441-13.198
	c0-5.449-1.35-10.178-4.047-14.184c-3.029-4.663-7.109-6.994-12.244-6.994c-3.752,0-7.143,1.807-10.17,5.419
	c-2.502,3.021-4.344,6.565-5.529,10.637c0.594,6.042,1.908,11.229,3.949,15.562C23.805,78.905,27.723,81.99,32.658,81.99z"/>
<g>
	
		<use xlink:href="#SPADE"  width="29.298" height="36.517" x="-14.649" y="-18.258" transform="matrix(1.024 0 0 -1.024 79 50.0005)" overflow="visible"/>
</g>
</svg>
