<?xml version="1.0" encoding="utf-8"?>
<!-- Generator: Adobe Illustrator 16.0.4, SVG Export Plug-In . SVG Version: 6.00 Build 0)  -->
<!DOCTYPE svg PUBLIC "-//W3C//DTD SVG 1.1//EN" "http://www.w3.org/Graphics/SVG/1.1/DTD/svg11.dtd">
<svg version="1.1" id="Layer_1" xmlns="http://www.w3.org/2000/svg" xmlns:xlink="http://www.w3.org/1999/xlink" x="0px" y="0px"
	 width="100px" height="100px" viewBox="0 0 100 100" enable-background="new 0 0 100 100" xml:space="preserve">
<symbol  id="DIAMOND" viewBox="-12.869 -19.302 25.738 38.604">
	<polygon fill="#B92026" points="-12.869,0.001 0.001,19.302 12.869,0.001 6.982,-8.829 0.001,-19.302 	"/>
</symbol>
<path fill="#FFFFFF" d="M100,90c0,5.523-4.478,10-10,10H10c-5.522,0-10-4.477-10-10V10C0,4.477,4.478,0,10,0h80
	c5.522,0,10,4.477,10,10V90z"/>
<path fill="#B92226" d="M6,30.944V8.926h48.281l5.43,9.479C46.217,37.757,36.838,61.981,31.572,91.074H20.02
	c4.674-26.659,12.868-50.157,24.586-70.497H17.354v10.367H6z"/>
<g>
	
		<use xlink:href="#DIAMOND"  width="25.738" height="38.604" x="-12.869" y="-19.302" transform="matrix(0.777 0 0 -0.777 79 54.1152)" overflow="visible"/>
</g>
</svg>
