<?xml version="1.0" encoding="utf-8"?>
<!-- Generator: Adobe Illustrator 16.0.4, SVG Export Plug-In . SVG Version: 6.00 Build 0)  -->
<!DOCTYPE svg PUBLIC "-//W3C//DTD SVG 1.1//EN" "http://www.w3.org/Graphics/SVG/1.1/DTD/svg11.dtd">
<svg version="1.1" id="Layer_1" xmlns="http://www.w3.org/2000/svg" xmlns:xlink="http://www.w3.org/1999/xlink" x="0px" y="0px"
	 width="100px" height="100px" viewBox="0 0 100 100" enable-background="new 0 0 100 100" xml:space="preserve">
<symbol  id="CLUB" viewBox="-19.017 -19.303 38.033 38.606">
	<path d="M10.763,4.878c-4.281,0-7.801-3.26-8.215-7.428C2-2.544,1.45-2.524,0.896-2.522L0.543,2.821
		c4.303,0.28,7.709,3.85,7.709,8.225c0,4.562-3.693,8.258-8.256,8.258c-4.557,0-8.254-3.696-8.254-8.258
		c0-4.375,3.406-7.943,7.711-8.225l-0.357-5.345c-0.551-0.01-1.102-0.021-1.646-0.03c-0.416,4.172-3.932,7.432-8.215,7.432
		c-4.559,0-8.252-3.697-8.252-8.256c0-4.562,3.693-8.254,8.252-8.254c4.283,0,7.799,3.256,8.215,7.428
		c0.506-0.012,1.02-0.021,1.535-0.027l-0.998-15.071h4.02L1.008-4.235C1.524-4.225,2.04-4.215,2.547-4.206
		c0.414-4.17,3.934-7.426,8.215-7.426c4.559,0,8.254,3.692,8.254,8.254C19.017,1.181,15.32,4.878,10.763,4.878z"/>
</symbol>
<path fill="#FFFFFF" d="M100,90c0,5.523-4.478,10-10,10H10c-5.522,0-10-4.477-10-10V10C0,4.477,4.478,0,10,0h80
	c5.522,0,10,4.477,10,10V90z"/>
<path d="M33.251,90.357c-7.307,0-13.626-2.369-18.957-7.109C8.765,78.379,6,72.355,6,65.18c0-8.425,3.653-15.171,10.96-20.24
	c-5.268-4.345-7.899-9.84-7.899-16.489c0-6.384,2.469-11.749,7.405-16.094c4.739-4.147,10.333-6.221,16.785-6.221
	c6.45,0,12.046,2.073,16.785,6.221c4.937,4.345,7.405,9.71,7.405,16.094c0,6.583-2.634,12.079-7.899,16.489
	c7.307,5.003,10.96,11.749,10.96,20.24c0,7.176-2.715,13.166-8.146,17.971S40.558,90.357,33.251,90.357z M33.251,50.863
	c-4.279,0-8.063,1.312-11.354,3.936c-3.555,2.756-5.332,6.232-5.332,10.431c0,4.133,1.777,7.61,5.332,10.431
	c3.291,2.558,7.075,3.836,11.354,3.836c4.278,0,8.062-1.278,11.354-3.836c3.555-2.82,5.332-6.298,5.332-10.431
	c0-4.198-1.777-7.675-5.332-10.431C41.313,52.176,37.529,50.863,33.251,50.863z M33.251,16.997c-3.489,0-6.551,1.049-9.183,3.146
	c-2.962,2.229-4.443,5.016-4.443,8.357c0,3.343,1.481,6.129,4.443,8.357c2.632,2.098,5.693,3.145,9.183,3.145
	c3.488,0,6.549-1.047,9.183-3.145c2.962-2.229,4.443-5.015,4.443-8.357c0-3.342-1.481-6.128-4.443-8.357
	C39.8,18.046,36.739,16.997,33.251,16.997z"/>
<g>
	
		<use xlink:href="#CLUB"  width="38.033" height="38.606" x="-19.017" y="-19.303" transform="matrix(0.7888 0 0 -0.7888 79 50)" overflow="visible"/>
</g>
</svg>
