<?xml version="1.0" encoding="utf-8"?>
<!-- Generator: Adobe Illustrator 16.0.4, SVG Export Plug-In . SVG Version: 6.00 Build 0)  -->
<!DOCTYPE svg PUBLIC "-//W3C//DTD SVG 1.1//EN" "http://www.w3.org/Graphics/SVG/1.1/DTD/svg11.dtd">
<svg version="1.1" id="Layer_1" xmlns="http://www.w3.org/2000/svg" xmlns:xlink="http://www.w3.org/1999/xlink" x="0px" y="0px"
	 width="100px" height="100px" viewBox="0 0 100 100" enable-background="new 0 0 100 100" xml:space="preserve">
<symbol  id="DIAMOND" viewBox="-12.869 -19.302 25.738 38.604">
	<polygon fill="#B92026" points="-12.869,0.001 0.001,19.302 12.869,0.001 6.982,-8.829 0.001,-19.302 	"/>
</symbol>
<path fill="#FFFFFF" d="M100,90c0,5.523-4.478,10-10,10H10c-5.522,0-10-4.477-10-10V10C0,4.477,4.478,0,10,0h80
	c5.522,0,10,4.477,10,10V90z"/>
<path fill="#B92226" d="M33.251,92.111c-7.307,0-13.626-2.369-18.957-7.109C8.765,80.133,6,74.109,6,66.934
	c0-8.426,3.653-15.172,10.96-20.24c-5.268-4.346-7.899-9.84-7.899-16.49c0-6.383,2.469-11.748,7.405-16.094
	c4.739-4.146,10.333-6.221,16.785-6.221c6.45,0,12.046,2.074,16.785,6.221c4.937,4.346,7.405,9.711,7.405,16.094
	c0,6.584-2.634,12.08-7.899,16.49c7.307,5.002,10.96,11.748,10.96,20.24c0,7.176-2.715,13.166-8.146,17.971
	S40.558,92.111,33.251,92.111z M33.251,52.617c-4.279,0-8.063,1.312-11.354,3.936c-3.555,2.756-5.332,6.232-5.332,10.43
	c0,4.133,1.777,7.611,5.332,10.432c3.291,2.557,7.075,3.836,11.354,3.836c4.278,0,8.062-1.279,11.354-3.836
	c3.555-2.82,5.332-6.299,5.332-10.432c0-4.197-1.777-7.674-5.332-10.43C41.313,53.93,37.529,52.617,33.251,52.617z M33.251,18.75
	c-3.489,0-6.551,1.049-9.183,3.146c-2.962,2.229-4.443,5.016-4.443,8.357s1.481,6.129,4.443,8.357
	c2.632,2.098,5.693,3.145,9.183,3.145c3.488,0,6.549-1.047,9.183-3.145c2.962-2.229,4.443-5.016,4.443-8.357
	s-1.481-6.129-4.443-8.357C39.8,19.799,36.739,18.75,33.251,18.75z"/>
<g>
	
		<use xlink:href="#DIAMOND"  width="25.738" height="38.604" x="-12.869" y="-19.302" transform="matrix(0.777 0 0 -0.777 79 54.1152)" overflow="visible"/>
</g>
</svg>
