<?xml version="1.0" encoding="utf-8"?>
<!-- Generator: Adobe Illustrator 16.0.4, SVG Export Plug-In . SVG Version: 6.00 Build 0)  -->
<!DOCTYPE svg PUBLIC "-//W3C//DTD SVG 1.1//EN" "http://www.w3.org/Graphics/SVG/1.1/DTD/svg11.dtd">
<svg version="1.1" id="Layer_1" xmlns="http://www.w3.org/2000/svg" xmlns:xlink="http://www.w3.org/1999/xlink" x="0px" y="0px"
	 width="100px" height="100px" viewBox="0 0 100 100" enable-background="new 0 0 100 100" xml:space="preserve">
<symbol  id="HEART" viewBox="-17.833 -19.301 35.664 38.601">
	<path fill="#B92026" d="M-0.001-19.301L-16.198,4.535c-2.934,4.315-1.811,10.195,2.506,13.131
		c4.32,2.934,10.197,1.811,13.131-2.506l0.56-0.824l0.559,0.824c2.934,4.315,8.814,5.438,13.133,2.506
		c4.316-2.936,5.441-8.815,2.506-13.131L-0.001-19.301z"/>
</symbol>
<path fill="#FFFFFF" d="M100,90c0,5.523-4.478,10-10,10H10c-5.522,0-10-4.477-10-10V10C0,4.477,4.478,0,10,0h80
	c5.522,0,10,4.477,10,10V90z"/>
<path fill="#B92226" d="M33.251,92.111c-7.307,0-13.626-2.37-18.957-7.109C8.765,80.132,6,74.109,6,66.934
	c0-8.425,3.653-15.171,10.96-20.241c-5.268-4.344-7.899-9.839-7.899-16.489c0-6.384,2.469-11.75,7.405-16.094
	c4.739-4.147,10.333-6.221,16.785-6.221c6.45,0,12.046,2.074,16.785,6.221c4.937,4.344,7.405,9.71,7.405,16.094
	c0,6.583-2.634,12.08-7.899,16.489c7.307,5.003,10.96,11.75,10.96,20.241c0,7.175-2.715,13.166-8.146,17.97
	C46.926,89.709,40.558,92.111,33.251,92.111z M33.251,52.617c-4.279,0-8.063,1.313-11.354,3.936
	c-3.555,2.755-5.332,6.233-5.332,10.431c0,4.133,1.777,7.61,5.332,10.43c3.291,2.558,7.075,3.837,11.354,3.837
	c4.278,0,8.062-1.279,11.354-3.837c3.555-2.82,5.332-6.297,5.332-10.43c0-4.198-1.777-7.675-5.332-10.431
	C41.313,53.93,37.529,52.617,33.251,52.617z M33.251,18.75c-3.489,0-6.551,1.049-9.183,3.146c-2.962,2.229-4.443,5.016-4.443,8.357
	c0,3.343,1.481,6.129,4.443,8.357c2.632,2.098,5.693,3.146,9.183,3.146c3.488,0,6.549-1.048,9.183-3.146
	c2.962-2.228,4.443-5.014,4.443-8.357c0-3.341-1.481-6.127-4.443-8.357C39.8,19.799,36.739,18.75,33.251,18.75z"/>
<g>
	
		<use xlink:href="#HEART"  width="35.664" height="38.601" x="-17.833" y="-19.301" transform="matrix(0.8412 0 0 -0.8412 79 50)" overflow="visible"/>
</g>
</svg>
