<?xml version="1.0" encoding="utf-8"?>
<!-- Generator: Adobe Illustrator 16.0.4, SVG Export Plug-In . SVG Version: 6.00 Build 0)  -->
<!DOCTYPE svg PUBLIC "-//W3C//DTD SVG 1.1//EN" "http://www.w3.org/Graphics/SVG/1.1/DTD/svg11.dtd">
<svg version="1.1" id="Layer_1" xmlns="http://www.w3.org/2000/svg" xmlns:xlink="http://www.w3.org/1999/xlink" x="0px" y="0px"
	 width="100px" height="100px" viewBox="0 0 100 100" enable-background="new 0 0 100 100" xml:space="preserve">
<symbol  id="CLUB" viewBox="-19.017 -19.303 38.033 38.606">
	<path d="M10.763,4.878c-4.281,0-7.801-3.26-8.215-7.428C2-2.544,1.45-2.524,0.896-2.522L0.543,2.821
		c4.303,0.28,7.709,3.85,7.709,8.225c0,4.562-3.693,8.258-8.256,8.258c-4.557,0-8.254-3.696-8.254-8.258
		c0-4.375,3.406-7.943,7.711-8.225l-0.357-5.345c-0.551-0.01-1.102-0.021-1.646-0.03c-0.416,4.172-3.932,7.432-8.215,7.432
		c-4.559,0-8.252-3.697-8.252-8.256c0-4.562,3.693-8.254,8.252-8.254c4.283,0,7.799,3.256,8.215,7.428
		c0.506-0.012,1.02-0.021,1.535-0.027l-0.998-15.071h4.02L1.008-4.235C1.524-4.225,2.04-4.215,2.547-4.206
		c0.414-4.17,3.934-7.426,8.215-7.426c4.559,0,8.254,3.692,8.254,8.254C19.017,1.181,15.32,4.878,10.763,4.878z"/>
</symbol>
<path fill="#FFFFFF" d="M100,90c0,5.523-4.478,10-10,10H10c-5.522,0-10-4.477-10-10V10C0,4.477,4.478,0,10,0h80
	c5.522,0,10,4.477,10,10V90z"/>
<path d="M48.556,59.65c-4.608,3.688-9.81,5.529-15.601,5.529c-7.768,0-14.252-3.061-19.451-9.182C8.501,50.073,6,43.195,6,35.361
	c0-7.898,2.501-14.775,7.504-20.635c5.199-6.188,11.684-9.281,19.451-9.281c9.609,0,16.817,4.971,21.623,14.908
	c3.686,7.701,5.529,16.951,5.529,27.745c0,11.322-1.812,20.702-5.431,28.14C49.938,86.047,42.498,90.95,32.362,90.95
	c-9.873,0-17.707-5.067-23.499-15.206l9.281-5.43c3.686,6.516,8.425,9.774,14.218,9.774C40.985,80.089,46.383,73.276,48.556,59.65z
	 M32.905,16.306c-4.754,0-8.715,2.036-11.884,6.106c-2.971,3.742-4.457,8.042-4.457,12.9c0,4.859,1.486,9.159,4.457,12.9
	c3.169,4.071,7.13,6.105,11.884,6.105c4.027,0,7.527-1.542,10.499-4.627c2.641-2.758,4.457-6.204,5.447-10.342
	C46.936,23.987,41.621,16.306,32.905,16.306z"/>
<g>
	
		<use xlink:href="#CLUB"  width="38.033" height="38.606" x="-19.017" y="-19.303" transform="matrix(0.7888 0 0 -0.7888 79 50)" overflow="visible"/>
</g>
</svg>
