<?xml version="1.0" encoding="utf-8"?>
<!-- Generator: Adobe Illustrator 16.0.4, SVG Export Plug-In . SVG Version: 6.00 Build 0)  -->
<!DOCTYPE svg PUBLIC "-//W3C//DTD SVG 1.1//EN" "http://www.w3.org/Graphics/SVG/1.1/DTD/svg11.dtd">
<svg version="1.1" id="Layer_1" xmlns="http://www.w3.org/2000/svg" xmlns:xlink="http://www.w3.org/1999/xlink" x="0px" y="0px"
	 width="100px" height="100px" viewBox="0 0 100 100" enable-background="new 0 0 100 100" xml:space="preserve">
<symbol  id="DIAMOND" viewBox="-12.869 -19.302 25.738 38.604">
	<polygon fill="#B92026" points="-12.869,0.001 0.001,19.302 12.869,0.001 6.982,-8.829 0.001,-19.302 	"/>
</symbol>
<path fill="#FFFFFF" d="M100,90c0,5.523-4.478,10-10,10H10c-5.522,0-10-4.477-10-10V10C0,4.477,4.478,0,10,0h80
	c5.522,0,10,4.477,10,10V90z"/>
<path fill="#B92226" d="M48.556,61.453c-4.608,3.688-9.81,5.529-15.601,5.529c-7.768,0-14.252-3.061-19.451-9.182
	C8.501,51.875,6,44.998,6,37.164c0-7.898,2.501-14.775,7.504-20.635c5.199-6.188,11.684-9.281,19.451-9.281
	c9.609,0,16.817,4.971,21.623,14.908c3.686,7.701,5.529,16.951,5.529,27.744c0,11.322-1.812,20.703-5.431,28.141
	c-4.739,9.809-12.179,14.711-22.314,14.711c-9.873,0-17.707-5.066-23.499-15.205l9.281-5.43c3.686,6.516,8.425,9.773,14.218,9.773
	C40.985,81.891,46.383,75.078,48.556,61.453z M32.905,18.107c-4.754,0-8.715,2.037-11.884,6.107
	c-2.971,3.742-4.457,8.041-4.457,12.9s1.486,9.158,4.457,12.9c3.169,4.07,7.13,6.105,11.884,6.105c4.027,0,7.527-1.543,10.499-4.627
	c2.641-2.758,4.457-6.205,5.447-10.342C46.936,25.789,41.621,18.107,32.905,18.107z"/>
<g>
	
		<use xlink:href="#DIAMOND"  width="25.738" height="38.604" x="-12.869" y="-19.302" transform="matrix(0.777 0 0 -0.777 79 54.1152)" overflow="visible"/>
</g>
</svg>
