<?xml version="1.0" encoding="utf-8"?>
<!-- Generator: Adobe Illustrator 16.0.4, SVG Export Plug-In . SVG Version: 6.00 Build 0)  -->
<!DOCTYPE svg PUBLIC "-//W3C//DTD SVG 1.1//EN" "http://www.w3.org/Graphics/SVG/1.1/DTD/svg11.dtd">
<svg version="1.1" id="Layer_1" xmlns="http://www.w3.org/2000/svg" xmlns:xlink="http://www.w3.org/1999/xlink" x="0px" y="0px"
	 width="100px" height="100px" viewBox="0 0 100 100" enable-background="new 0 0 100 100" xml:space="preserve">
<symbol  id="HEART" viewBox="-17.833 -19.301 35.664 38.601">
	<path fill="#B92026" d="M-0.001-19.301L-16.198,4.535c-2.934,4.315-1.811,10.195,2.506,13.131
		c4.32,2.934,10.197,1.811,13.131-2.506l0.56-0.824l0.559,0.824c2.934,4.315,8.814,5.438,13.133,2.506
		c4.316-2.936,5.441-8.815,2.506-13.131L-0.001-19.301z"/>
</symbol>
<path fill="#FFFFFF" d="M100,90c0,5.523-4.478,10-10,10H10c-5.522,0-10-4.477-10-10V10C0,4.477,4.478,0,10,0h80
	c5.522,0,10,4.477,10,10V90z"/>
<path fill="#B92226" d="M48.556,61.453c-4.608,3.688-9.81,5.529-15.601,5.529c-7.768,0-14.252-3.061-19.451-9.183
	C8.501,51.876,6,44.998,6,37.164c0-7.898,2.501-14.776,7.504-20.636c5.199-6.187,11.684-9.281,19.451-9.281
	c9.609,0,16.817,4.971,21.623,14.909c3.686,7.701,5.529,16.95,5.529,27.745c0,11.322-1.812,20.702-5.431,28.14
	c-4.739,9.809-12.179,14.712-22.314,14.712c-9.873,0-17.707-5.068-23.499-15.206l9.281-5.43c3.686,6.516,8.425,9.774,14.218,9.774
	C40.985,81.892,46.383,75.079,48.556,61.453z M32.905,18.108c-4.754,0-8.715,2.036-11.884,6.106
	c-2.971,3.742-4.457,8.042-4.457,12.9c0,4.859,1.486,9.159,4.457,12.9c3.169,4.071,7.13,6.105,11.884,6.105
	c4.027,0,7.527-1.542,10.499-4.628c2.641-2.757,4.457-6.203,5.447-10.341C46.936,25.79,41.621,18.108,32.905,18.108z"/>
<g>
	
		<use xlink:href="#HEART"  width="35.664" height="38.601" x="-17.833" y="-19.301" transform="matrix(0.8412 0 0 -0.8412 79 50)" overflow="visible"/>
</g>
</svg>
