<?xml version="1.0" encoding="utf-8"?>
<!-- Generator: Adobe Illustrator 16.0.4, SVG Export Plug-In . SVG Version: 6.00 Build 0)  -->
<!DOCTYPE svg PUBLIC "-//W3C//DTD SVG 1.1//EN" "http://www.w3.org/Graphics/SVG/1.1/DTD/svg11.dtd">
<svg version="1.1" id="Layer_1" xmlns="http://www.w3.org/2000/svg" xmlns:xlink="http://www.w3.org/1999/xlink" x="0px" y="0px"
	 width="100px" height="100px" viewBox="0 0 100 100" enable-background="new 0 0 100 100" xml:space="preserve">
<symbol  id="SPADE" viewBox="-14.649 -18.258 29.298 36.517">
	<path d="M13.306-1.319L-0.001,18.259L-13.306-1.319c-2.41-3.543-1.49-8.377,2.059-10.782c3.291-2.244,7.686-1.607,10.23,1.334
		l-0.994-7.49h4.02l-0.992,7.49c2.543-2.941,6.938-3.572,10.229-1.334C14.794-9.696,15.716-4.868,13.306-1.319z"/>
</symbol>
<path fill="#FFFFFF" d="M100,90c0,5.523-4.478,10-10,10H10c-5.522,0-10-4.477-10-10V10C0,4.477,4.478,0,10,0h80
	c5.522,0,10,4.477,10,10V90z"/>
<path d="M48.556,61.453c-4.608,3.688-9.81,5.529-15.601,5.529c-7.768,0-14.252-3.061-19.451-9.183C8.501,51.876,6,44.998,6,37.164
	c0-7.898,2.501-14.776,7.504-20.636c5.199-6.187,11.684-9.281,19.451-9.281c9.609,0,16.817,4.971,21.623,14.909
	c3.686,7.701,5.529,16.95,5.529,27.745c0,11.322-1.812,20.702-5.431,28.14c-4.739,9.809-12.179,14.712-22.314,14.712
	c-9.873,0-17.707-5.068-23.499-15.206l9.281-5.43c3.686,6.516,8.425,9.774,14.218,9.774C40.985,81.892,46.383,75.079,48.556,61.453z
	 M32.905,18.108c-4.754,0-8.715,2.036-11.884,6.106c-2.971,3.742-4.457,8.042-4.457,12.9c0,4.859,1.486,9.159,4.457,12.9
	c3.169,4.071,7.13,6.105,11.884,6.105c4.027,0,7.527-1.542,10.499-4.628c2.641-2.757,4.457-6.203,5.447-10.341
	C46.936,25.79,41.621,18.108,32.905,18.108z"/>
<g>
	
		<use xlink:href="#SPADE"  width="29.298" height="36.517" x="-14.649" y="-18.258" transform="matrix(1.024 0 0 -1.024 79 50.0005)" overflow="visible"/>
</g>
</svg>
