<?xml version="1.0" encoding="utf-8"?>
<!-- Generator: Adobe Illustrator 16.0.4, SVG Export Plug-In . SVG Version: 6.00 Build 0)  -->
<!DOCTYPE svg PUBLIC "-//W3C//DTD SVG 1.1//EN" "http://www.w3.org/Graphics/SVG/1.1/DTD/svg11.dtd">
<svg version="1.1" id="Layer_1" xmlns="http://www.w3.org/2000/svg" xmlns:xlink="http://www.w3.org/1999/xlink" x="0px" y="0px"
	 width="100px" height="100px" viewBox="0 0 100 100" enable-background="new 0 0 100 100" xml:space="preserve">
<symbol  id="CLUB" viewBox="-19.017 -19.303 38.033 38.606">
	<path d="M10.763,4.878c-4.281,0-7.801-3.26-8.215-7.428C2-2.544,1.45-2.524,0.896-2.522L0.543,2.821
		c4.303,0.28,7.709,3.85,7.709,8.225c0,4.562-3.693,8.258-8.256,8.258c-4.557,0-8.254-3.696-8.254-8.258
		c0-4.375,3.406-7.943,7.711-8.225l-0.357-5.345c-0.551-0.01-1.102-0.021-1.646-0.03c-0.416,4.172-3.932,7.432-8.215,7.432
		c-4.559,0-8.252-3.697-8.252-8.256c0-4.562,3.693-8.254,8.252-8.254c4.283,0,7.799,3.256,8.215,7.428
		c0.506-0.012,1.02-0.021,1.535-0.027l-0.998-15.071h4.02L1.008-4.235C1.524-4.225,2.04-4.215,2.547-4.206
		c0.414-4.17,3.934-7.426,8.215-7.426c4.559,0,8.254,3.692,8.254,8.254C19.017,1.181,15.32,4.878,10.763,4.878z"/>
</symbol>
<path fill="#FFFFFF" d="M100,90c0,5.523-4.478,10-10,10H10c-5.522,0-10-4.477-10-10V10C0,4.477,4.478,0,10,0h80
	c5.522,0,10,4.477,10,10V90z"/>
<path d="M6,6.827h10.565v82.444H6V6.827z M40.064,91.049c-4.806,0-8.903-1.745-12.293-5.232c-3.391-3.488-5.085-7.668-5.085-12.54
	V23.119c0-4.805,1.694-8.969,5.085-12.49c3.39-3.521,7.487-5.283,12.293-5.283c4.87,0,9,1.762,12.392,5.283
	c3.389,3.521,5.085,7.686,5.085,12.49v50.157c0,4.872-1.696,9.052-5.085,12.54C49.064,89.304,44.935,91.049,40.064,91.049z
	 M40.064,16.207c-1.871,0-3.475,0.691-4.811,2.07c-1.336,1.381-2.002,2.991-2.002,4.83v50.081c0,1.907,0.666,3.55,2.002,4.929
	c1.336,1.381,2.939,2.07,4.811,2.07c1.936,0,3.571-0.689,4.907-2.07c1.336-1.379,2.004-3.021,2.004-4.929V23.107
	c0-1.839-0.668-3.449-2.004-4.83C43.636,16.898,42,16.207,40.064,16.207z"/>
<g>
	
		<use xlink:href="#CLUB"  width="38.033" height="38.606" x="-19.017" y="-19.303" transform="matrix(0.7888 0 0 -0.7888 79 50)" overflow="visible"/>
</g>
</svg>
