<?xml version="1.0" encoding="utf-8"?>
<!-- Generator: Adobe Illustrator 16.0.4, SVG Export Plug-In . SVG Version: 6.00 Build 0)  -->
<!DOCTYPE svg PUBLIC "-//W3C//DTD SVG 1.1//EN" "http://www.w3.org/Graphics/SVG/1.1/DTD/svg11.dtd">
<svg version="1.1" id="Layer_1" xmlns="http://www.w3.org/2000/svg" xmlns:xlink="http://www.w3.org/1999/xlink" x="0px" y="0px"
	 width="100px" height="100px" viewBox="0 0 100 100" enable-background="new 0 0 100 100" xml:space="preserve">
<symbol  id="DIAMOND" viewBox="-12.869 -19.302 25.738 38.604">
	<polygon fill="#B92026" points="-12.869,0.001 0.001,19.302 12.869,0.001 6.982,-8.829 0.001,-19.302 	"/>
</symbol>
<path fill="#FFFFFF" d="M100,90c0,5.523-4.478,10-10,10H10c-5.522,0-10-4.477-10-10V10C0,4.477,4.478,0,10,0h80
	c5.522,0,10,4.477,10,10V90z"/>
<path fill="#B92226" d="M6,8.63h10.565v82.444H6V8.63z M40.064,92.852c-4.806,0-8.903-1.745-12.293-5.232
	c-3.391-3.488-5.085-7.668-5.085-12.54V24.922c0-4.805,1.694-8.969,5.085-12.49c3.39-3.521,7.487-5.283,12.293-5.283
	c4.87,0,9,1.762,12.392,5.283c3.389,3.521,5.085,7.686,5.085,12.49v50.157c0,4.872-1.696,9.052-5.085,12.54
	C49.064,91.106,44.935,92.852,40.064,92.852z M40.064,18.01c-1.871,0-3.475,0.691-4.811,2.07c-1.336,1.381-2.002,2.991-2.002,4.83
	v50.081c0,1.907,0.666,3.55,2.002,4.929c1.336,1.381,2.939,2.07,4.811,2.07c1.936,0,3.571-0.689,4.907-2.07
	c1.336-1.379,2.004-3.021,2.004-4.929V24.91c0-1.839-0.668-3.449-2.004-4.83C43.636,18.701,42,18.01,40.064,18.01z"/>
<g>
	
		<use xlink:href="#DIAMOND"  width="25.738" height="38.604" x="-12.869" y="-19.302" transform="matrix(0.777 0 0 -0.777 79 54.1152)" overflow="visible"/>
</g>
</svg>
