<?xml version="1.0" encoding="utf-8"?>
<!-- Generator: Adobe Illustrator 16.0.4, SVG Export Plug-In . SVG Version: 6.00 Build 0)  -->
<!DOCTYPE svg PUBLIC "-//W3C//DTD SVG 1.1//EN" "http://www.w3.org/Graphics/SVG/1.1/DTD/svg11.dtd">
<svg version="1.1" id="Layer_1" xmlns="http://www.w3.org/2000/svg" xmlns:xlink="http://www.w3.org/1999/xlink" x="0px" y="0px"
	 width="100px" height="100px" viewBox="0 0 100 100" enable-background="new 0 0 100 100" xml:space="preserve">
<symbol  id="HEART" viewBox="-17.833 -19.301 35.664 38.601">
	<path fill="#B92026" d="M-0.001-19.301L-16.198,4.535c-2.934,4.315-1.811,10.195,2.506,13.131
		c4.32,2.934,10.197,1.811,13.131-2.506l0.56-0.824l0.559,0.824c2.934,4.315,8.814,5.438,13.133,2.506
		c4.316-2.936,5.441-8.815,2.506-13.131L-0.001-19.301z"/>
</symbol>
<path fill="#FFFFFF" d="M100,90c0,5.523-4.478,10-10,10H10c-5.522,0-10-4.477-10-10V10C0,4.477,4.478,0,10,0h80
	c5.522,0,10,4.477,10,10V90z"/>
<path fill="#B92226" d="M6,8.63h10.565v82.444H6V8.63z M40.064,92.852c-4.806,0-8.903-1.745-12.293-5.233
	c-3.391-3.488-5.085-7.667-5.085-12.539V24.921c0-4.804,1.694-8.968,5.085-12.49c3.39-3.521,7.487-5.282,12.293-5.282
	c4.87,0,9,1.762,12.392,5.282c3.389,3.522,5.085,7.687,5.085,12.49v50.158c0,4.872-1.696,9.051-5.085,12.539
	C49.064,91.106,44.935,92.852,40.064,92.852z M40.064,18.01c-1.871,0-3.475,0.69-4.811,2.07c-1.336,1.381-2.002,2.991-2.002,4.83
	v50.081c0,1.906,0.666,3.55,2.002,4.929c1.336,1.381,2.939,2.07,4.811,2.07c1.936,0,3.571-0.689,4.907-2.07
	c1.336-1.379,2.004-3.022,2.004-4.929V24.91c0-1.839-0.668-3.449-2.004-4.83C43.636,18.7,42,18.01,40.064,18.01z"/>
<g>
	
		<use xlink:href="#HEART"  width="35.664" height="38.601" x="-17.833" y="-19.301" transform="matrix(0.8412 0 0 -0.8412 79 50)" overflow="visible"/>
</g>
</svg>
