<?xml version="1.0" encoding="utf-8"?>
<!-- Generator: Adobe Illustrator 16.0.4, SVG Export Plug-In . SVG Version: 6.00 Build 0)  -->
<!DOCTYPE svg PUBLIC "-//W3C//DTD SVG 1.1//EN" "http://www.w3.org/Graphics/SVG/1.1/DTD/svg11.dtd">
<svg version="1.1" id="Layer_1" xmlns="http://www.w3.org/2000/svg" xmlns:xlink="http://www.w3.org/1999/xlink" x="0px" y="0px"
	 width="100px" height="100px" viewBox="0 0 100 100" enable-background="new 0 0 100 100" xml:space="preserve">
<path fill="#FFFFFF" d="M100,90c0,5.523-4.478,10-10,10H10c-5.522,0-10-4.477-10-10V10C0,4.477,4.478,0,10,0h80
	c5.522,0,10,4.477,10,10V90z"/>
<path d="M21.356,60.639c0,4.016,0,5.693,0,5.035c0,3.949,0.822,7.109,2.468,9.479c1.975,2.831,4.937,4.246,8.886,4.246
	c3.357,0,6.055-1.218,8.096-3.654c1.842-2.236,2.765-5.035,2.765-8.393V18.479h-8.985V6.729h28.93v11.75h-8.59v48.873
	c0,6.65-2.008,12.211-6.023,16.688c-4.213,4.674-9.611,7.01-16.192,7.01c-6.649,0-12.112-2.303-16.39-6.912
	c-4.28-4.605-6.385-10.234-6.319-16.883v-6.615H21.356z"/>
<g>
	<g>
		<path fill="#020202" d="M83.898,72.575c0.054,0,0.054,0,0.054,0c-1.433-1.912-4.193-3.396-7.642-3.98
			c0.583,1.167,1.221,2.228,1.964,3.131c0.796,0.956,1.963,1.538,3.29,1.538C82.412,73.264,83.208,73.054,83.898,72.575z"/>
		<path fill="#020202" d="M67.553,71.776c0.691-0.9,1.38-1.962,1.965-3.13c-3.45,0.586-6.209,2.017-7.643,3.929
			c0.053,0,0.053,0,0.053,0c0.691,0.479,1.487,0.688,2.336,0.688l0,0C65.59,73.264,66.758,72.682,67.553,71.776z"/>
		<path fill="#020202" d="M72.489,63.924c-0.319,1.169-0.849,2.814-1.645,4.512c-0.638,1.326-1.433,2.707-2.441,3.98
			c-1.697,2.121-4.831,2.494-7.058,1.061c-0.424-0.318-0.849-0.636-1.167-1.061c-0.691-0.852-1.22-1.805-1.645-2.918
			c0.848-0.215,1.432-1.012,1.432-1.912c0-1.115-0.902-2.015-2.016-2.015s-2.017,0.899-2.017,1.962c0,1.113,0.903,2.017,2.017,2.017
			c0.053,0,0.16,0,0.211,0l2.177,13.16l25.206,0.105l2.229-13.159c0.054,0,0.105,0,0.211,0c1.114,0,2.016-0.903,2.016-2.018
			c0-1.113-0.902-2.017-2.016-2.017s-2.016,0.903-2.016,2.017c0,0.902,0.584,1.646,1.434,1.911
			c-0.425,1.113-0.956,2.069-1.645,2.918c-0.319,0.425-0.744,0.796-1.168,1.062c-2.175,1.381-5.359,1.062-7.058-1.113
			c-1.008-1.221-1.804-2.654-2.441-3.98c-0.796-1.697-1.325-3.29-1.645-4.512"/>
		<circle fill="#FFFFFF" cx="72.967" cy="77.413" r="4.82"/>
		<path fill="#020202" d="M64.765,57.985c0,1.97,1.597,3.563,3.562,3.563c1.843,0,3.366-1.406,3.545-3.204
			c0.22,0.009,0.443,0.009,0.662,0.018l-0.432,6.491h1.739l-0.432-6.5c0.225,0,0.439,0,0.662-0.009
			c0.175,1.798,1.693,3.204,3.543,3.204c1.969,0,3.562-1.594,3.562-3.563c0-1.967-1.595-3.562-3.562-3.562
			c-1.85,0-3.375,1.406-3.543,3.206c-0.239-0.004-0.475-0.012-0.713-0.012l-0.15-2.304c1.857-0.125,3.326-1.665,3.326-3.554
			c0-1.97-1.593-3.563-3.568-3.563c-1.973,0-3.566,1.594-3.566,3.563c0,1.889,1.469,3.429,3.324,3.554l-0.148,2.304
			c-0.239,0-0.477,0.008-0.713,0.008c-0.181-1.796-1.7-3.202-3.544-3.202C66.348,54.424,64.755,56.019,64.765,57.985z"/>
		<path d="M76.18,77.998l-3.147-3.9c-0.032-0.041-0.101-0.041-0.132,0l-3.146,3.9c-0.021,0.023-0.025,0.059-0.012,0.089l1.202,2.621
			c0.014,0.032,0.044,0.05,0.077,0.05h3.889c0.033,0,0.064-0.018,0.078-0.05l1.201-2.621C76.203,78.057,76.2,78.021,76.18,77.998z
			 M74.825,78.38l-1.772-2.332v-1.656l2.917,3.616L74.825,78.38z M71.882,79.635h2.171l0.691,0.953H71.19L71.882,79.635z
			 M74.049,79.466h-2.165l-0.64-0.982l1.723-2.266l1.723,2.266L74.049,79.466z M71.11,78.38l-1.146-0.372l2.917-3.616v1.656
			L71.11,78.38z M69.979,78.19l1.107,0.361l0.649,0.996l-0.695,0.958L69.979,78.19z M74.895,80.506L74.2,79.548l0.649-0.996
			l1.107-0.361L74.895,80.506z"/>
	</g>
	<g>
		<path fill="#FFFFFF" d="M58.523,87.232c0,1.365,1.107,2.473,2.476,2.473h23.936c1.368,0,2.477-1.106,2.477-2.473v-1.65
			c0-1.367-1.107-2.477-2.477-2.477H60.999c-1.367,0-2.477,1.107-2.477,2.477L58.523,87.232L58.523,87.232z"/>
		<path fill="#020202" d="M84.934,90H60.999c-1.527,0-2.77-1.241-2.77-2.768l0-1.65c0-1.528,1.243-2.771,2.77-2.771h23.936
			c1.528,0,2.771,1.243,2.771,2.771v1.65C87.705,88.759,86.462,90,84.934,90z M60.999,83.399c-1.203,0-2.182,0.979-2.182,2.183v1.65
			c0,1.201,0.979,2.18,2.182,2.18h23.936c1.204,0,2.183-0.979,2.183-2.18v-1.65c0-1.203-0.979-2.183-2.183-2.183H60.999z"/>
	</g>
</g>
</svg>
