<?xml version="1.0" encoding="utf-8"?>
<!-- Generator: Adobe Illustrator 16.0.4, SVG Export Plug-In . SVG Version: 6.00 Build 0)  -->
<!DOCTYPE svg PUBLIC "-//W3C//DTD SVG 1.1//EN" "http://www.w3.org/Graphics/SVG/1.1/DTD/svg11.dtd">
<svg version="1.1" id="Layer_1" xmlns="http://www.w3.org/2000/svg" xmlns:xlink="http://www.w3.org/1999/xlink" x="0px" y="0px"
	 width="100px" height="100px" viewBox="0 0 100 100" enable-background="new 0 0 100 100" xml:space="preserve">
<path fill="#FFFFFF" d="M100,90c0,5.523-4.478,10-10,10H10c-5.522,0-10-4.477-10-10V10C0,4.477,4.478,0,10,0h80
	c5.522,0,10,4.477,10,10V90z"/>
<path fill="#B92226" d="M21.356,61.75c0,4.016,0,5.693,0,5.035c0,3.949,0.822,7.109,2.468,9.479
	c1.975,2.831,4.937,4.246,8.886,4.246c3.357,0,6.055-1.218,8.096-3.654c1.842-2.236,2.765-5.035,2.765-8.393V19.59h-8.985V7.84
	h28.93v11.75h-8.59v48.873c0,6.65-2.008,12.211-6.023,16.688c-4.213,4.674-9.611,7.01-16.192,7.01
	c-6.649,0-12.112-2.303-16.39-6.912c-4.28-4.605-6.385-10.234-6.319-16.883V61.75H21.356z"/>
<g>
	<g>
		<path fill="#B92226" d="M51.071,71.154c0.244,0.348,0.677,0.48,1.058,0.354L55.96,85.1h28.982l3.831-13.591
			c0.382,0.126,0.817-0.007,1.058-0.354c0.297-0.425,0.193-1.009-0.231-1.307c-0.424-0.298-1.01-0.193-1.307,0.231
			c-0.242,0.345-0.218,0.798,0.029,1.111l-7.854,5.651c-0.998-2.666-3.024-4.828-5.599-6.002c-0.392-2.082-2.223-3.661-4.417-3.661
			c-2.186,0-4.013,1.567-4.414,3.638c-2.589,1.165-4.633,3.328-5.642,5.999l-7.816-5.623c0.247-0.318,0.271-0.769,0.03-1.116
			c-0.299-0.422-0.883-0.526-1.309-0.23C50.879,70.143,50.777,70.729,51.071,71.154z M74.191,70.56
			c-1.169-0.44-2.44-0.68-3.762-0.68c-1.308,0-2.559,0.231-3.714,0.659c0.488-1.6,1.979-2.771,3.737-2.771
			C72.219,67.769,73.711,68.948,74.191,70.56z"/>
	</g>
	<g>
		<path fill="#FFFFFF" d="M71.016,73.357v6.671h2.932C73.848,76.639,72.583,73.803,71.016,73.357z M72.863,73.664
			c1.12,1.339,1.864,3.654,1.938,6.364h2.92C77.542,77.062,75.57,74.575,72.863,73.664z M67.228,80.028h2.931v-6.671
			C68.593,73.803,67.327,76.639,67.228,80.028z M57.996,80.028h4.589c0.226-4.228,3.723-7.596,8.002-7.596
			c4.281,0,7.78,3.371,8.004,7.596h4.511l-0.191,0.856H58.264L57.996,80.028z M63.457,80.028h2.919
			c0.072-2.712,0.816-5.025,1.938-6.364C65.607,74.575,63.633,77.062,63.457,80.028z"/>
	</g>
	<g>
		<polygon fill="#B92226" points="77.241,59.977 70.591,50 63.943,59.977 70.591,69.947 		"/>
	</g>
	<g>
		<path fill="#FFFFFF" d="M52.274,88.674c0,1.722,1.395,3.116,3.116,3.116h30.123c1.721,0,3.117-1.395,3.117-3.116V86.6
			c0-1.722-1.395-3.119-3.117-3.119H55.39c-1.721,0-3.117,1.396-3.117,3.119L52.274,88.674L52.274,88.674z"/>
		<path fill="#B92226" d="M85.513,92.16H55.39c-1.922,0-3.485-1.564-3.485-3.486L51.902,86.6c0-1.924,1.564-3.489,3.487-3.489
			h30.123C87.436,83.11,89,84.676,89,86.6v2.074C89,90.596,87.436,92.16,85.513,92.16z M55.39,83.851
			c-1.515,0-2.747,1.233-2.747,2.749l0.002,2.074c0,1.514,1.231,2.746,2.745,2.746h30.123c1.515,0,2.747-1.232,2.747-2.746V86.6
			c0-1.516-1.232-2.749-2.747-2.749H55.39z"/>
	</g>
</g>
</svg>
