<?xml version="1.0" encoding="utf-8"?>
<!-- Generator: Adobe Illustrator 16.0.4, SVG Export Plug-In . SVG Version: 6.00 Build 0)  -->
<!DOCTYPE svg PUBLIC "-//W3C//DTD SVG 1.1//EN" "http://www.w3.org/Graphics/SVG/1.1/DTD/svg11.dtd">
<svg version="1.1" id="Layer_1" xmlns="http://www.w3.org/2000/svg" xmlns:xlink="http://www.w3.org/1999/xlink" x="0px" y="0px"
	 width="100px" height="100px" viewBox="0 0 100 100" enable-background="new 0 0 100 100" xml:space="preserve">
<path fill="#FFFFFF" d="M100,90c0,5.523-4.478,10-10,10H10c-5.522,0-10-4.477-10-10V10C0,4.477,4.478,0,10,0h80
	c5.522,0,10,4.477,10,10V90z"/>
<path fill="#B92226" d="M21.356,61.749c0,4.016,0,5.695,0,5.036c0,3.949,0.822,7.108,2.468,9.479
	c1.975,2.831,4.937,4.245,8.886,4.245c3.357,0,6.055-1.217,8.096-3.652c1.842-2.237,2.765-5.036,2.765-8.393V19.589h-8.985V7.84
	h28.93v11.749h-8.59v48.875c0,6.648-2.008,12.211-6.023,16.686c-4.213,4.675-9.611,7.011-16.192,7.011
	c-6.649,0-12.112-2.304-16.39-6.911c-4.28-4.607-6.385-10.234-6.319-16.885v-6.615H21.356z"/>
<g>
	<g>
		<path fill="#B92226" d="M74.49,67.196l7.105-10.455c1.287-1.897,0.797-4.479-1.095-5.761c-1.896-1.288-4.479-0.796-5.764,1.1
			l-0.246,0.36l-0.244-0.36c-1.29-1.896-3.866-2.385-5.764-1.1c-1.893,1.282-2.385,3.867-1.098,5.761L74.49,67.196z"/>
	</g>
	<g>
		<path fill="#B92226" d="M86.812,86.383H61.753v-2.308l-2-12.556c0.865-0.806,1.965-1.247,3.119-1.247
			c0.658,0,1.307,0.15,1.925,0.447l0.245,0.119l0.177-0.209c0.637-0.756,1.566-1.188,2.553-1.188c0.728,0,1.419,0.229,2.001,0.668
			l0.325,0.245l1.061-1.921c0.681-1.231,1.925-1.965,3.333-1.965c1.407,0,2.651,0.735,3.332,1.965l1.023,1.852l0.322-0.229
			c0.567-0.403,1.235-0.615,1.929-0.615c1.051,0,2.019,0.482,2.661,1.324l0.202,0.267l0.276-0.187c0.691-0.465,1.39-0.7,2.078-0.7
			c0.976,0,1.954,0.462,2.913,1.376l-2.415,12.695V86.383L86.812,86.383z"/>
		<path fill="#FFFFFF" d="M82.951,72.999c-0.398,0.523-1.001,0.824-1.657,0.824c-0.754,0-1.449-0.41-1.812-1.068l-2.216-4.012
			c-0.568-1.023-1.604-1.634-2.774-1.634c-1.173,0-2.209,0.611-2.775,1.634L69.642,72.5c-0.364,0.66-1.059,1.07-1.814,1.07
			c-0.68,0-1.319-0.333-1.707-0.894c-0.78-1.122-1.966-1.764-3.252-1.764c-0.79,0-1.557,0.242-2.219,0.7l-0.182,0.126l1.767,11.604
			h24.156l2.108-11.626l-0.168-0.13c-0.681-0.533-1.358-0.803-2.013-0.803C84.926,70.783,83.718,71.988,82.951,72.999z"/>
	</g>
	<g>
		<path fill="#FFFFFF" d="M59.292,89.246c0,1.439,1.166,2.605,2.606,2.605h25.188c1.438,0,2.605-1.165,2.605-2.605V87.51
			c0-1.438-1.167-2.606-2.605-2.606H61.897c-1.439,0-2.607,1.168-2.607,2.606L59.292,89.246L59.292,89.246z"/>
		<path fill="#B92226" d="M87.085,92.16H61.897c-1.607,0-2.916-1.308-2.916-2.915l-0.001-1.736c0-1.608,1.308-2.916,2.917-2.916
			h25.188c1.607,0,2.915,1.308,2.915,2.916v1.736C90,90.853,88.693,92.16,87.085,92.16z M61.897,85.213
			c-1.267,0-2.298,1.03-2.298,2.297l0.001,1.736c0,1.266,1.03,2.296,2.296,2.296h25.188c1.266,0,2.295-1.03,2.295-2.296V87.51
			c0-1.267-1.03-2.297-2.295-2.297H61.897z"/>
	</g>
	<g>
		<circle fill="#B92226" cx="64.036" cy="81.579" r="0.448"/>
		<circle fill="#B92226" cx="65.826" cy="81.579" r="0.448"/>
		<circle fill="#B92226" cx="66.721" cy="81.579" r="0.448"/>
		<circle fill="#B92226" cx="68.512" cy="81.579" r="0.448"/>
		<circle fill="#B92226" cx="71.197" cy="81.579" r="0.447"/>
		<circle fill="#B92226" cx="72.093" cy="81.579" r="0.448"/>
		<circle fill="#B92226" cx="62.245" cy="81.579" r="0.448"/>
		<circle fill="#B92226" cx="63.141" cy="81.579" r="0.448"/>
		<circle fill="#B92226" cx="64.931" cy="81.579" r="0.447"/>
		<circle fill="#B92226" cx="67.616" cy="81.579" r="0.448"/>
		<circle fill="#B92226" cx="69.407" cy="81.579" r="0.447"/>
		<circle fill="#B92226" cx="70.302" cy="81.579" r="0.448"/>
		<circle fill="#B92226" cx="73.883" cy="81.579" r="0.448"/>
		<circle fill="#B92226" cx="72.988" cy="81.579" r="0.448"/>
		<circle fill="#B92226" cx="63.141" cy="82.474" r="0.448"/>
		<circle fill="#B92226" cx="65.826" cy="82.474" r="0.448"/>
		<circle fill="#B92226" cx="67.616" cy="82.474" r="0.448"/>
		<circle fill="#B92226" cx="68.512" cy="82.474" r="0.448"/>
		<circle fill="#B92226" cx="70.302" cy="82.474" r="0.448"/>
		<circle fill="#B92226" cx="72.988" cy="82.474" r="0.448"/>
		<circle fill="#B92226" cx="73.883" cy="82.474" r="0.448"/>
		<circle fill="#B92226" cx="62.245" cy="82.474" r="0.448"/>
		<circle fill="#B92226" cx="64.036" cy="82.474" r="0.448"/>
		<circle fill="#B92226" cx="64.931" cy="82.474" r="0.447"/>
		<circle fill="#B92226" cx="66.721" cy="82.474" r="0.448"/>
		<circle fill="#B92226" cx="69.407" cy="82.474" r="0.447"/>
		<circle fill="#B92226" cx="71.197" cy="82.474" r="0.447"/>
		<circle fill="#B92226" cx="72.093" cy="82.474" r="0.448"/>
		<circle fill="#B92226" cx="76.569" cy="81.579" r="0.448"/>
		<circle fill="#B92226" cx="78.359" cy="81.579" r="0.448"/>
		<circle fill="#B92226" cx="79.254" cy="81.579" r="0.447"/>
		<circle fill="#B92226" cx="81.045" cy="81.579" r="0.448"/>
		<circle fill="#B92226" cx="83.73" cy="81.579" r="0.447"/>
		<circle fill="#B92226" cx="84.625" cy="81.579" r="0.448"/>
		<circle fill="#B92226" cx="74.778" cy="81.579" r="0.448"/>
		<circle fill="#B92226" cx="75.674" cy="81.579" r="0.448"/>
		<circle fill="#B92226" cx="77.464" cy="81.579" r="0.447"/>
		<circle fill="#B92226" cx="80.149" cy="81.579" r="0.448"/>
		<circle fill="#B92226" cx="81.94" cy="81.579" r="0.448"/>
		<circle fill="#B92226" cx="82.835" cy="81.579" r="0.448"/>
		<circle fill="#B92226" cx="86.416" cy="81.579" r="0.448"/>
		<circle fill="#B92226" cx="85.521" cy="81.579" r="0.448"/>
		<circle fill="#B92226" cx="75.674" cy="82.474" r="0.448"/>
		<circle fill="#B92226" cx="78.359" cy="82.474" r="0.448"/>
		<circle fill="#B92226" cx="80.149" cy="82.474" r="0.448"/>
		<circle fill="#B92226" cx="81.045" cy="82.474" r="0.448"/>
		<circle fill="#B92226" cx="82.835" cy="82.474" r="0.448"/>
		<circle fill="#B92226" cx="85.521" cy="82.474" r="0.448"/>
		<circle fill="#B92226" cx="86.416" cy="82.474" r="0.448"/>
		<circle fill="#B92226" cx="74.778" cy="82.474" r="0.448"/>
		<circle fill="#B92226" cx="76.569" cy="82.474" r="0.448"/>
		<circle fill="#B92226" cx="77.464" cy="82.474" r="0.447"/>
		<circle fill="#B92226" cx="79.254" cy="82.474" r="0.447"/>
		<circle fill="#B92226" cx="81.94" cy="82.474" r="0.448"/>
		<circle fill="#B92226" cx="83.73" cy="82.474" r="0.447"/>
		<circle fill="#B92226" cx="84.625" cy="82.474" r="0.448"/>
	</g>
	<path fill="#B92226" d="M78.535,73.901c-0.032-0.032-0.075-0.05-0.119-0.05h-0.969h-2.701h-2.851h-1.33
		c-0.045,0-0.088,0.018-0.119,0.05l-1.45,1.483c-0.03,0.031-0.048,0.074-0.047,0.117c0,0.045,0.018,0.088,0.05,0.117l4.317,4.219
		c0.03,0.03,0.073,0.047,0.116,0.047h0.358h0.766h0.733h0.26c0.043,0,0.085-0.017,0.116-0.047l4.317-4.219
		c0.031-0.029,0.049-0.072,0.05-0.117c0.001-0.043-0.017-0.086-0.047-0.117L78.535,73.901z M75.259,79.656h-0.638l0.276-4.096h3.522
		L75.259,79.656z M73.822,79.656l-2.772-4.096h3.725l-0.276,4.096H73.822z M70.59,74.079h1.192l-0.88,1.36H69.26L70.59,74.079z
		 M77.416,74.079l1.006,1.36h-3.524l-0.087-1.36H77.416z M74.688,74.079l0.087,1.36h-3.727l0.879-1.36H74.688z M78.574,75.438
		l-1.005-1.36h0.821l1.331,1.36H78.574z M70.903,75.561l2.772,4.096h-0.218l-4.191-4.096H70.903z M75.413,79.656l3.16-4.096h1.142
		l-4.191,4.096H75.413z"/>
</g>
</svg>
