<?xml version="1.0" encoding="utf-8"?>
<!-- Generator: Adobe Illustrator 16.0.4, SVG Export Plug-In . SVG Version: 6.00 Build 0)  -->
<!DOCTYPE svg PUBLIC "-//W3C//DTD SVG 1.1//EN" "http://www.w3.org/Graphics/SVG/1.1/DTD/svg11.dtd">
<svg version="1.1" id="Layer_1" xmlns="http://www.w3.org/2000/svg" xmlns:xlink="http://www.w3.org/1999/xlink" x="0px" y="0px"
	 width="100px" height="100px" viewBox="0 0 100 100" enable-background="new 0 0 100 100" xml:space="preserve">
<path fill="#FFFFFF" d="M100,90c0,5.523-4.478,10-10,10H10c-5.522,0-10-4.477-10-10V10C0,4.477,4.478,0,10,0h80
	c5.522,0,10,4.477,10,10V90z"/>
<path d="M21.356,61.749c0,4.016,0,5.695,0,5.036c0,3.949,0.822,7.108,2.468,9.479c1.975,2.831,4.937,4.245,8.886,4.245
	c3.357,0,6.055-1.217,8.096-3.652c1.842-2.237,2.765-5.036,2.765-8.393V19.589h-8.985V7.84h28.93v11.749h-8.59v48.875
	c0,6.648-2.008,12.211-6.023,16.686c-4.213,4.675-9.611,7.011-16.192,7.011c-6.649,0-12.112-2.304-16.39-6.911
	c-4.28-4.607-6.385-10.234-6.319-16.885v-6.615H21.356z"/>
<g>
	<g>
		<path fill="#020202" d="M73.879,76.068c4.236-2.645,9.13-4.071,14.246-4.089l-3.102,13.636h-2.643l-0.344-0.597
			C79.968,81.427,77.158,78.402,73.879,76.068z"/>
	</g>
	<g>
		<path fill="#020202" d="M81.001,85.616H60.662L57.561,71.98C67.576,72.013,76.323,77.499,81.001,85.616z"/>
	</g>
	<g>
		<path fill="#020202" d="M62.391,71.249c0-0.678,4.802-1.228,10.724-1.228c5.912,0,10.706,0.548,10.722,1.224h0.126
			c-4.056,0.604-7.899,1.928-11.352,3.882c-3.048-1.801-6.447-3.112-10.035-3.878H62.391z"/>
	</g>
	<g>
		<path fill="#FFFFFF" d="M56.649,88.994c0,1.563,1.267,2.831,2.83,2.831h27.354c1.562,0,2.83-1.266,2.83-2.831v-1.885
			c0-1.562-1.268-2.83-2.83-2.83H59.479c-1.563,0-2.832,1.268-2.832,2.83L56.649,88.994L56.649,88.994z"/>
		<path fill="#020202" d="M86.834,92.16H59.479c-1.746,0-3.166-1.42-3.166-3.167l-0.002-1.884c0-1.746,1.421-3.167,3.168-3.167
			h27.354c1.746,0,3.166,1.42,3.166,3.166v1.885C90,90.74,88.58,92.16,86.834,92.16z M59.479,84.616
			c-1.376,0-2.496,1.118-2.496,2.493l0.002,1.885c0,1.376,1.118,2.494,2.494,2.494h27.354c1.375,0,2.494-1.118,2.494-2.494v-1.885
			c0-1.375-1.119-2.493-2.494-2.493H59.479z"/>
	</g>
	<g>
		<path fill="#020202" d="M65.82,60.719L73.105,50l7.282,10.719c1.318,1.94,0.815,4.587-1.129,5.905
			c-1.801,1.227-4.21,0.878-5.598-0.732l0.543,4.1h-2.197l0.543-4.1c-1.391,1.611-3.797,1.957-5.6,0.732
			C65.006,65.306,64.501,62.662,65.82,60.719z"/>
	</g>
</g>
</svg>
