<?xml version="1.0" encoding="utf-8"?>
<!-- Generator: Adobe Illustrator 16.0.4, SVG Export Plug-In . SVG Version: 6.00 Build 0)  -->
<!DOCTYPE svg PUBLIC "-//W3C//DTD SVG 1.1//EN" "http://www.w3.org/Graphics/SVG/1.1/DTD/svg11.dtd">
<svg version="1.1" id="Layer_1" xmlns="http://www.w3.org/2000/svg" xmlns:xlink="http://www.w3.org/1999/xlink" x="0px" y="0px"
	 width="100px" height="100px" viewBox="0 0 100 100" enable-background="new 0 0 100 100" xml:space="preserve">
<path fill="#FFFFFF" d="M100,90c0,5.523-4.478,10-10,10H10c-5.522,0-10-4.477-10-10V10C0,4.477,4.478,0,10,0h80
	c5.522,0,10,4.477,10,10V90z"/>
<path d="M64.107,89.469c-3.885,0-6.682-0.165-8.393-0.494c-1.975-0.459-3.885-1.382-5.727-2.764
	c-4.147,3.357-8.688,5.035-13.626,5.035c-5.331,0-10.104-1.91-14.316-5.727c-4.411-3.949-6.615-8.557-6.615-13.822v-7.307H10v-9.479
	c0.197-0.065,2.007-0.198,5.431-0.396V25.191c0-5.331,2.204-9.972,6.615-13.922c4.212-3.816,8.985-5.727,14.316-5.727
	c5.332,0,10.153,1.943,14.465,5.826c4.311,3.885,6.468,8.491,6.468,13.822v46.506c0,2.238-0.462,4.442-1.383,6.615
	c0.921,0.592,1.777,0.986,2.567,1.184h5.628V89.469z M25.502,54.517c4.014,0.462,8.029,2.305,12.046,5.529
	c2.5,1.975,5.692,5.134,9.577,9.479V25.191c0-2.369-1.136-4.508-3.406-6.418c-2.271-1.908-4.725-2.863-7.356-2.863
	c-2.633,0-5.102,0.955-7.405,2.863c-2.305,1.91-3.455,4.049-3.455,6.418V54.517z M42.287,78.98L29.55,66.39
	c-1.054-1.066-2.403-1.732-4.048-1.999v7.195c0,2.332,1.15,4.465,3.455,6.396c2.304,1.931,4.772,2.896,7.405,2.896
	C38.402,80.879,40.377,80.246,42.287,78.98z"/>
<g>
	<g>
		<path fill="#020202" d="M86.015,89.604c-7.251,0-14.467,0-21.719,0c0-0.207,0-0.452,0-0.658h21.719
			C86.015,89.188,86.015,89.396,86.015,89.604z"/>
	</g>
	<g>
		<path fill="#020202" d="M86.05,88.562H64.263c-0.035-0.383-0.035-0.763-0.105-1.144h21.996C86.083,87.8,86.05,88.18,86.05,88.562z
			"/>
	</g>
	<g>
		<path fill="#020202" d="M74.809,65.873c-1.526,0.137-2.914,1.215-3.747,2.844c-2.775,0.453-5.272,1.387-7.148,2.463
			c-2.878,1.666-3.988,3.4-3.365,4.893c1.562,3.782,3.089,7.148,3.573,10.93h22.066c0.52-3.781,2.046-7.113,3.643-10.93l0,0
			c0.625-1.492-0.485-3.191-3.365-4.856c-1.873-1.112-4.338-2.014-7.147-2.499c-0.833-1.664-2.255-2.741-3.816-2.844 M80.152,76.767
			c0.66-1.18,1.838-1.944,3.158-1.944c1.941,0,3.572,1.668,3.711,3.816c-0.346,0.382-0.693,0.73-1.041,1.111
			c-1.041,1.146-2.082,1.873-3.053,1.838C81.263,81.518,80.083,79.818,80.152,76.767z M79.701,69.619
			c2.324,0.415,4.406,1.215,6.002,2.117c2.533,1.457,3.54,2.914,3.019,4.233l0,0c-0.347,0.97-0.832,1.63-1.354,2.255
			c-0.311-2.152-2.045-3.816-4.092-3.816c-1.25,0-2.36,0.59-3.123,1.562c0.035-0.21,0.035-0.452,0.068-0.694
			C80.464,73.298,80.359,71.318,79.701,69.619z M71.444,77.149c0.208-2.085,1.802-3.714,3.713-3.714
			c2.011,0,3.642,1.701,3.745,3.887c-0.762,2.67-2.219,4.161-3.711,4.161C73.628,81.451,72.171,79.924,71.444,77.149z M71.062,75.24
			c-0.207-2.186,0.036-4.337,0.868-6.036c0.799-1.597,2.013-2.569,3.263-2.569c1.248,0,2.497,0.973,3.261,2.569
			c0.867,1.699,1.109,3.851,0.867,6.036c-0.07,0.348-0.104,0.693-0.173,1.006c-0.521-1.873-2.116-3.262-3.989-3.262
			c-1.839,0-3.4,1.318-3.956,3.123C71.13,75.83,71.097,75.553,71.062,75.24L71.062,75.24z M63.291,78.604
			c0.173-2.115,1.77-3.748,3.711-3.748c1.388,0,2.603,0.834,3.26,2.083c-0.034,2.95-1.178,4.615-2.81,4.648
			c-0.971,0.037-2.013-0.691-3.053-1.837C64.019,79.334,63.671,78.953,63.291,78.604z M64.643,71.701
			c1.632-0.902,3.678-1.667,6.039-2.115c-0.625,1.698-0.728,3.676-0.485,5.654c0.033,0.277,0.067,0.555,0.067,0.832
			c-0.762-1.04-1.942-1.699-3.227-1.699c-2.046,0-3.745,1.629-4.094,3.746c-0.52-0.59-0.971-1.248-1.318-2.186l0,0
			C61.14,74.65,62.144,73.158,64.643,71.701z"/>
	</g>
	<g>
		<path fill="#FFFFFF" d="M61.369,88.557c0,1.328,1.076,2.403,2.405,2.403h23.252c1.328,0,2.406-1.075,2.406-2.403v-1.602
			c0-1.328-1.078-2.406-2.406-2.406H63.773c-1.328,0-2.406,1.076-2.406,2.406v1.602H61.369z"/>
		<path fill="#020202" d="M87.025,91.246H63.773c-1.483,0-2.69-1.206-2.69-2.689l-0.001-1.602c0-1.484,1.207-2.691,2.691-2.691
			h23.252c1.484,0,2.691,1.207,2.691,2.691v1.602C89.716,90.04,88.509,91.246,87.025,91.246z M63.773,84.834
			c-1.169,0-2.12,0.951-2.12,2.121v1.602c0.001,1.168,0.952,2.117,2.121,2.117h23.252c1.169,0,2.12-0.949,2.12-2.117v-1.602
			c0-1.17-0.951-2.121-2.12-2.121H63.773z"/>
	</g>
	<g>
		<path fill="#020202" d="M70.289,55.045c2.033,0,3.705,1.547,3.902,3.526c0.259-0.004,0.518-0.014,0.785-0.014l0.167-2.538
			c-2.043-0.131-3.662-1.827-3.662-3.904c0-2.167,1.755-3.918,3.919-3.918c2.165,0,3.92,1.751,3.92,3.918
			c0,2.077-1.62,3.773-3.66,3.904l0.167,2.538c0.262,0.005,0.524,0.01,0.782,0.014c0.198-1.979,1.867-3.526,3.903-3.526
			c2.164,0,3.917,1.754,3.917,3.917c0,2.165-1.753,3.923-3.917,3.923c-2.035,0-3.705-1.551-3.903-3.529
			c-0.241,0.01-0.482,0.015-0.729,0.016l0.475,7.158H74.45l0.472-7.158c-0.244-0.001-0.487-0.006-0.73-0.016
			c-0.196,1.982-1.865,3.529-3.901,3.529c-2.164,0-3.917-1.758-3.917-3.923C66.373,56.799,68.123,55.045,70.289,55.045z"/>
	</g>
</g>
</svg>
