<?xml version="1.0" encoding="utf-8"?>
<!-- Generator: Adobe Illustrator 16.0.4, SVG Export Plug-In . SVG Version: 6.00 Build 0)  -->
<!DOCTYPE svg PUBLIC "-//W3C//DTD SVG 1.1//EN" "http://www.w3.org/Graphics/SVG/1.1/DTD/svg11.dtd">
<svg version="1.1" id="Layer_1" xmlns="http://www.w3.org/2000/svg" xmlns:xlink="http://www.w3.org/1999/xlink" x="0px" y="0px"
	 width="100px" height="100px" viewBox="0 0 100 100" enable-background="new 0 0 100 100" xml:space="preserve">
<path fill="#FFFFFF" d="M100,90c0,5.523-4.478,10-10,10H10c-5.522,0-10-4.477-10-10V10C0,4.477,4.478,0,10,0h80
	c5.522,0,10,4.477,10,10V90z"/>
<path fill="#B92226" d="M64.107,91.074c-3.885,0-6.682-0.165-8.393-0.494c-1.975-0.459-3.885-1.382-5.727-2.764
	c-4.147,3.357-8.688,5.035-13.626,5.035c-5.331,0-10.104-1.91-14.316-5.727c-4.411-3.949-6.615-8.557-6.615-13.822v-7.307H10v-9.479
	c0.197-0.065,2.007-0.198,5.431-0.396V26.797c0-5.331,2.204-9.972,6.615-13.922c4.212-3.816,8.985-5.727,14.316-5.727
	c5.332,0,10.153,1.943,14.465,5.826c4.311,3.885,6.468,8.491,6.468,13.822v46.506c0,2.238-0.462,4.442-1.383,6.615
	c0.921,0.592,1.777,0.986,2.567,1.184h5.628V91.074z M25.502,56.122c4.014,0.462,8.029,2.305,12.046,5.529
	c2.5,1.975,5.692,5.134,9.577,9.479V26.797c0-2.369-1.136-4.508-3.406-6.418c-2.271-1.908-4.725-2.863-7.356-2.863
	c-2.633,0-5.102,0.955-7.405,2.863c-2.305,1.91-3.455,4.049-3.455,6.418V56.122z M42.287,80.586L29.55,67.995
	c-1.054-1.066-2.403-1.732-4.048-1.999v7.195c0,2.332,1.15,4.465,3.455,6.396c2.304,1.931,4.772,2.896,7.405,2.896
	C38.402,82.484,40.377,81.852,42.287,80.586z"/>
<g>
	<g>
		<circle fill="#FFFFFF" cx="81.011" cy="81.271" r="8.703"/>
		<path fill="#B92226" d="M81.011,90.261c-4.957,0-8.989-4.032-8.989-8.989s4.033-8.988,8.989-8.988
			c4.956,0,8.989,4.031,8.989,8.988S85.967,90.261,81.011,90.261z M81.011,72.854c-4.642,0-8.417,3.776-8.417,8.417
			s3.775,8.418,8.417,8.418c4.641,0,8.417-3.777,8.417-8.418S85.652,72.854,81.011,72.854z"/>
	</g>
	<g>
		<circle fill="#FFFFFF" cx="66.219" cy="81.271" r="8.703"/>
		<path fill="#B92226" d="M66.219,90.261c-4.957,0-8.989-4.032-8.989-8.989s4.032-8.988,8.989-8.988
			c4.957,0,8.988,4.031,8.988,8.988S71.176,90.261,66.219,90.261z M66.219,72.854c-4.641,0-8.417,3.776-8.417,8.417
			s3.776,8.418,8.417,8.418c4.641,0,8.416-3.777,8.416-8.418S70.86,72.854,66.219,72.854z"/>
	</g>
	<g>
		<path fill="#FFFFFF" d="M69.695,91.951c1.42,0,2.761-0.545,3.92-1.571c1.161,1.025,2.502,1.571,3.921,1.571
			c4.3,0,7.669-5.109,7.669-11.637s-3.369-11.638-7.669-11.638c-1.419,0-2.761,0.545-3.921,1.571
			c-1.16-1.023-2.501-1.571-3.92-1.571c-4.301,0-7.669,5.11-7.669,11.638S65.395,91.951,69.695,91.951z"/>
		<path fill="#B92226" d="M77.537,92.238c-1.396,0-2.747-0.512-3.921-1.482c-1.172,0.971-2.523,1.482-3.92,1.482
			c-2.179,0-4.199-1.243-5.687-3.5c-1.463-2.221-2.269-5.212-2.268-8.424c0-6.687,3.494-11.925,7.955-11.925
			c1.396,0,2.746,0.512,3.92,1.483c1.172-0.972,2.524-1.483,3.921-1.483c4.461,0,7.956,5.238,7.956,11.925
			S81.998,92.238,77.537,92.238z M73.615,89.998l0.189,0.167c1.11,0.981,2.401,1.501,3.732,1.501c4.14,0,7.384-4.986,7.384-11.352
			s-3.244-11.352-7.384-11.352c-1.332,0-2.622,0.52-3.731,1.5l-0.189,0.168l-0.19-0.168c-1.111-0.98-2.402-1.5-3.731-1.5
			c-4.14,0-7.383,4.986-7.383,11.352c0,3.102,0.772,5.98,2.175,8.109c1.378,2.09,3.227,3.242,5.208,3.242
			c1.332,0,2.622-0.52,3.731-1.5L73.615,89.998z"/>
	</g>
	<g>
		<path fill="#FFFFFF" d="M69.695,70.654c1.521,0,2.901,1.02,3.92,2.67c1.021-1.65,2.4-2.67,3.921-2.67
			c3.144,0,5.692,4.324,5.692,9.66c0,5.335-2.548,9.66-5.692,9.66c-1.521,0-2.899-1.02-3.921-2.668
			c-1.02,1.648-2.399,2.668-3.92,2.668c-3.144,0-5.692-4.324-5.692-9.66C64.003,74.979,66.551,70.654,69.695,70.654z"/>
		<path fill="#B92226" d="M77.537,90.118c-1.458,0-2.844-0.901-3.921-2.546c-1.075,1.645-2.46,2.546-3.92,2.546
			c-3.218,0-5.835-4.397-5.835-9.804c0-5.406,2.618-9.804,5.835-9.804c1.46,0,2.846,0.903,3.92,2.547
			c1.077-1.644,2.462-2.547,3.921-2.547c3.218,0,5.835,4.397,5.835,9.804S80.754,90.118,77.537,90.118z M73.615,87.034l0.122,0.196
			c1.039,1.678,2.389,2.602,3.8,2.602c3.06,0,5.549-4.27,5.549-9.518c0-5.247-2.489-9.517-5.549-9.517
			c-1.412,0-2.761,0.924-3.8,2.603l-0.122,0.195L73.493,73.4c-1.036-1.679-2.385-2.603-3.798-2.603c-3.059,0-5.548,4.27-5.55,9.517
			c0,5.248,2.49,9.518,5.55,9.518c1.413,0,2.762-0.924,3.799-2.602L73.615,87.034z"/>
	</g>
	<g>
		<path fill="#FFFFFF" d="M74.922,89.936c0-11.739,2.616-21.259-1.479-21.259c-3.749,0-1.478,9.52-1.478,21.259"/>
		<path fill="#B92226" d="M75.208,89.936h-0.572c0-3.733,0.262-7.215,0.493-10.285c0.375-4.989,0.671-8.93-0.528-10.223
			c-0.291-0.312-0.669-0.465-1.157-0.465c-0.414,0-0.74,0.133-0.998,0.408c-1.186,1.264-0.927,5.359-0.6,10.545
			c0.19,2.996,0.405,6.395,0.405,10.02h-0.572c0-3.607-0.214-6.996-0.403-9.984c-0.35-5.531-0.603-9.527,0.753-10.973
			c0.367-0.391,0.843-0.589,1.415-0.589c0.647,0,1.177,0.218,1.576,0.648c1.369,1.476,1.08,5.326,0.679,10.655
			C75.468,82.755,75.208,86.225,75.208,89.936z"/>
	</g>
	<g>
		<path fill="#FFFFFF" d="M59.563,90.158c0,1.33,1.079,2.407,2.41,2.407h23.286c1.331,0,2.409-1.077,2.409-2.407v-1.605
			c0-1.329-1.078-2.409-2.409-2.409H61.973c-1.331,0-2.41,1.079-2.41,2.409V90.158z"/>
		<path fill="#B92226" d="M85.258,92.852H61.973c-1.486,0-2.695-1.209-2.695-2.693v-1.605c0-1.485,1.208-2.695,2.695-2.695h23.286
			c1.486,0,2.695,1.21,2.695,2.695v1.605C87.954,91.643,86.745,92.852,85.258,92.852z M61.973,86.431
			c-1.171,0-2.123,0.952-2.123,2.122v1.605c0,1.169,0.952,2.121,2.123,2.121h23.286c1.171,0,2.123-0.952,2.123-2.121v-1.605
			c0-1.17-0.952-2.122-2.123-2.122H61.973z"/>
	</g>
	<g>
		<polygon fill="#B92226" points="79.99,59.458 73.684,50 67.378,59.458 73.684,68.916 		"/>
	</g>
</g>
</svg>
