<?xml version="1.0" encoding="utf-8"?>
<!-- Generator: Adobe Illustrator 16.0.4, SVG Export Plug-In . SVG Version: 6.00 Build 0)  -->
<!DOCTYPE svg PUBLIC "-//W3C//DTD SVG 1.1//EN" "http://www.w3.org/Graphics/SVG/1.1/DTD/svg11.dtd">
<svg version="1.1" id="Layer_1" xmlns="http://www.w3.org/2000/svg" xmlns:xlink="http://www.w3.org/1999/xlink" x="0px" y="0px"
	 width="100px" height="100px" viewBox="0 0 100 100" enable-background="new 0 0 100 100" xml:space="preserve">
<path fill="#FFFFFF" d="M100,90c0,5.523-4.478,10-10,10H10c-5.522,0-10-4.477-10-10V10C0,4.477,4.478,0,10,0h80
	c5.522,0,10,4.477,10,10V90z"/>
<path fill="#B92226" d="M64.107,91.074c-3.885,0-6.682-0.165-8.393-0.494c-1.975-0.459-3.885-1.382-5.727-2.764
	c-4.147,3.356-8.688,5.035-13.626,5.035c-5.331,0-10.104-1.91-14.316-5.727c-4.411-3.949-6.615-8.557-6.615-13.823v-7.307H10v-9.479
	c0.197-0.064,2.007-0.197,5.431-0.395V26.797c0-5.331,2.204-9.972,6.615-13.922c4.212-3.816,8.985-5.727,14.316-5.727
	c5.332,0,10.153,1.942,14.465,5.826c4.311,3.884,6.468,8.491,6.468,13.822v46.505c0,2.238-0.462,4.443-1.383,6.615
	c0.921,0.593,1.777,0.987,2.567,1.185h5.628V91.074z M25.502,56.122c4.014,0.461,8.029,2.305,12.046,5.529
	c2.5,1.975,5.692,5.134,9.577,9.479V26.797c0-2.369-1.136-4.508-3.406-6.418c-2.271-1.908-4.725-2.863-7.356-2.863
	c-2.633,0-5.102,0.955-7.405,2.863c-2.305,1.91-3.455,4.049-3.455,6.418V56.122z M42.287,80.585L29.55,67.995
	c-1.054-1.066-2.403-1.732-4.048-2v7.195c0,2.333,1.15,4.465,3.455,6.396c2.304,1.932,4.772,2.897,7.405,2.897
	C38.402,82.484,40.377,81.852,42.287,80.585z"/>
<g>
	<path fill="#FFFFFF" d="M87.271,87.405c-0.824-0.279-1.452-0.767-2.117-1.284c-0.313-0.244-0.637-0.486-0.979-0.713
		c1.538-1.639,5.819-6.604,5.825-9.749c0-4.049-5.837-4.618-6.086-4.643C77.355,70.244,73.044,66.802,73,66.77
		c-0.044-0.039-0.103-0.032-0.146-0.045c-0.064-0.025-0.116-0.057-0.185-0.057c-0.064,0-0.115,0.032-0.18,0.057
		c-0.045,0.013-0.102,0.006-0.146,0.045c-0.039,0.032-4.35,3.474-10.927,4.253c-0.236,0.019-6.073,0.588-6.073,4.637
		c0,3.137,4.258,8.084,5.806,9.74c-0.364,0.223-0.717,0.45-1.055,0.675c-0.94,0.626-1.829,1.218-3.043,1.625
		c-0.024,0.008-0.049,0.016-0.073,0.024l-0.178,0.059l0.002,0.006c-0.064,0.027-0.115,0.057-0.152,0.093
		c-0.874,0.538-1.313,1.827-1.109,2.484c0.309,0.991,0.849,1.945,2.699,2.214c1.326,0.192,2.672,0.208,3.936,0.208l15.448-0.001
		c0.705,0,1.44,0.016,2.191,0.031c0.786,0.017,1.59,0.034,2.393,0.034c1.623,0,3.722-0.061,5.578-0.53
		c0.752-0.191,1.351-0.62,1.687-1.205c0.264-0.459,0.335-0.969,0.201-1.436C89.33,88.5,88.679,87.884,87.271,87.405z"/>
	<g>
		<g id="XMLID_1_">
			<g>
				<path fill="#B92226" d="M56.347,75.66c0,3.289,5.927,9.509,5.99,9.554c0.217,0.172,0.25,0.479,0.07,0.683
					c-0.096,0.115-0.243,0.179-0.389,0.179c-0.115,0-0.224-0.038-0.319-0.108c-0.262-0.204-6.361-6.559-6.361-10.308
					c0-4.049,5.837-4.617,6.073-4.636c6.578-0.779,10.889-4.222,10.927-4.253c0.044-0.039,0.102-0.032,0.146-0.045
					c0.064-0.025,0.115-0.058,0.179-0.058c0.07,0,0.121,0.032,0.185,0.058c0.045,0.013,0.102,0.006,0.147,0.045
					c0.044,0.032,4.355,3.474,10.914,4.247c0.249,0.026,6.086,0.594,6.086,4.643c-0.006,3.749-6.105,10.104-6.367,10.301
					c-0.096,0.077-0.205,0.115-0.319,0.115c-0.147,0-0.294-0.063-0.39-0.179c-0.179-0.21-0.147-0.517,0.07-0.683
					c0.058-0.045,5.99-6.265,5.99-9.554c0-3.174-5.122-3.672-5.186-3.679c-2.197-0.262-4.132-0.792-5.761-1.405
					c1.858,1.13,1.986,2.14,1.986,2.874c0,0.868-0.288,6.405-5.875,11.093c0,0-0.817-0.568-1.635-0.568s-1.578,0.594-1.578,0.594
					c-5.32-5.033-5.658-10.25-5.658-11.119c0-0.722,0.121-1.725,1.941-2.842c-1.616,0.594-3.532,1.118-5.703,1.373
					C61.463,71.988,56.347,72.48,56.347,75.66z"/>
			</g>
		</g>
	</g>
	<g>
		<path fill="#FFFFFF" d="M57.108,88.019c2.01-0.662,3.176-1.826,4.879-2.74c2.828-1.801,4.552,2.187,7.49,0.893
			c0.894-0.394,1.409-1.098,2.526-1.283c1.495-0.249,2.414,0.48,3.346,1.075c2.785,1.776,4.341-1.82,7.186-0.994
			c1.896,0.549,2.818,2.122,4.636,2.739c1.403,0.477,1.904,1.054,2.197,2.061c0.246,0.858-0.372,1.915-1.66,2.243
			c-3.055,0.773-6.88,0.456-10.083,0.456c-4.84,0-9.68,0-14.517,0c-1.621,0-3.225,0.027-4.821-0.204
			c-1.613-0.234-2.132-1.003-2.44-1.994C55.659,89.666,56.192,88.319,57.108,88.019C57.829,87.781,56.385,88.255,57.108,88.019z"/>
		<path fill="#B92226" d="M82.209,92.852c-0.803,0-1.607-0.017-2.394-0.034c-0.75-0.015-1.485-0.031-2.19-0.031l-15.447,0.001
			c-1.265,0-2.611-0.016-3.937-0.208c-1.85-0.269-2.391-1.223-2.699-2.214c-0.205-0.656,0.236-1.946,1.109-2.484
			c0.037-0.037,0.089-0.066,0.152-0.093l-0.002-0.006l0.179-0.059c0.023-0.008,0.047-0.016,0.073-0.023
			c1.213-0.407,2.102-0.999,3.043-1.625c0.543-0.363,1.106-0.738,1.741-1.078c0.535-0.341,1.084-0.513,1.66-0.513
			c0.896,0,1.697,0.425,2.47,0.835c0.77,0.41,1.498,0.796,2.307,0.796c0.363,0,0.715-0.078,1.076-0.236
			c0.311-0.139,0.576-0.318,0.855-0.509c0.484-0.33,0.985-0.671,1.747-0.797c0.217-0.036,0.432-0.055,0.64-0.055
			c1.128,0,1.947,0.535,2.669,1.005l0.262,0.17c0.474,0.302,0.929,0.45,1.392,0.45c0.729,0,1.408-0.363,2.127-0.747
			c0.803-0.429,1.635-0.873,2.632-0.873c0.316,0,0.636,0.046,0.951,0.138c1.042,0.301,1.8,0.891,2.532,1.459
			c0.666,0.517,1.294,1.004,2.118,1.283c1.407,0.479,2.058,1.095,2.402,2.275c0.134,0.467,0.062,0.977-0.201,1.436
			c-0.336,0.585-0.936,1.014-1.687,1.205C85.931,92.792,83.832,92.852,82.209,92.852z M63.108,92.148h14.517
			c0.709,0,1.449,0.017,2.204,0.031c0.782,0.017,1.582,0.034,2.38,0.034c1.585,0,3.633-0.058,5.421-0.511
			c0.582-0.148,1.04-0.47,1.291-0.904c0.176-0.308,0.226-0.642,0.141-0.939c-0.25-0.861-0.628-1.384-1.994-1.848
			c-0.925-0.314-1.626-0.858-2.303-1.385c-0.717-0.557-1.394-1.082-2.319-1.35c-0.261-0.076-0.514-0.113-0.773-0.113
			c-0.837,0-1.563,0.388-2.332,0.798c-0.757,0.404-1.538,0.822-2.427,0.822c-0.588,0-1.156-0.181-1.735-0.55l-0.268-0.174
			c-0.71-0.464-1.381-0.902-2.32-0.902c-0.173,0-0.353,0.016-0.535,0.046c-0.624,0.104-1.045,0.391-1.492,0.695
			c-0.291,0.198-0.592,0.404-0.957,0.565c-0.445,0.196-0.88,0.291-1.333,0.291c-0.969,0-1.801-0.443-2.606-0.871
			c-0.737-0.392-1.432-0.761-2.17-0.761c-0.45,0-0.888,0.139-1.338,0.425c-0.628,0.337-1.178,0.704-1.709,1.058
			c-0.896,0.596-1.821,1.213-3.037,1.645l0.001,0.002l-0.146,0.048c-0.019,0.006-0.04,0.013-0.06,0.02
			c-0.766,0.252-1.189,1.428-1.056,1.855c0.292,0.94,0.76,1.565,2.181,1.772c1.283,0.186,2.604,0.201,3.845,0.201L63.108,92.148z"/>
	</g>
	<g>
		<circle fill="#FFFFFF" cx="72.666" cy="76.186" r="3.832"/>
	</g>
	<g>
		<circle fill="#B92226" cx="72.666" cy="65.882" r="1.191"/>
	</g>
	<g>
		<path fill="#B92226" d="M72.67,68.017l7.568-11.14c1.364-2.02,0.846-4.77-1.169-6.134c-2.023-1.375-4.771-0.848-6.141,1.167
			l-0.264,0.387l-0.264-0.387c-1.369-2.015-4.116-2.542-6.136-1.167c-2.019,1.369-2.542,4.119-1.173,6.134L72.67,68.017z"/>
	</g>
	<path fill="#B92226" d="M71.215,78.902c0.016,0.015,0.036,0.023,0.058,0.023h2.786c0.022,0,0.043-0.009,0.059-0.023l0.601-0.6
		c0.015-0.015,0.024-0.036,0.024-0.058v-4.118c0-0.021-0.009-0.042-0.024-0.059l-0.601-0.598c-0.015-0.016-0.037-0.024-0.058-0.024
		h-2.787c-0.022,0-0.042,0.008-0.058,0.024l-0.601,0.598c-0.016,0.016-0.024,0.037-0.024,0.059v4.118
		c0,0.022,0.008,0.043,0.024,0.058L71.215,78.902z M71.711,74.359h1.91l0.289,0.292v3.071l-0.289,0.292h-1.91l-0.292-0.292V74.65
		L71.711,74.359z M71.387,77.775l0.274,0.273l-0.17,0.321l-0.37-0.371L71.387,77.775z M71.716,78.073h1.899l0.168,0.316h-2.234
		L71.716,78.073z M73.841,78.369l-0.17-0.321l0.273-0.273l0.267,0.223L73.841,78.369z M73.971,77.72v-3.068l0.254-0.212v3.492
		L73.971,77.72z M73.943,74.597l-0.273-0.275l0.17-0.321l0.369,0.371L73.943,74.597z M73.615,74.298h-1.899l-0.167-0.316h2.234
		L73.615,74.298z M71.491,74.001l0.17,0.321l-0.274,0.275l-0.266-0.225L71.491,74.001z M71.358,74.652v3.068l-0.251,0.211v-3.492
		L71.358,74.652z M71.074,78.035l0.387,0.391l-0.1,0.188l-0.463-0.46L71.074,78.035z M71.517,78.45h2.298l0.098,0.183h-2.495
		L71.517,78.45z M73.971,78.614l-0.1-0.188l0.387-0.391l0.177,0.119L73.971,78.614z M74.285,77.98v-3.589l0.167-0.112v3.814
		L74.285,77.98z M74.258,74.336l-0.387-0.39l0.1-0.188l0.465,0.46L74.258,74.336z M73.815,73.921h-2.298l-0.099-0.184h2.495
		L73.815,73.921z M71.361,73.757l0.1,0.188l-0.387,0.39l-0.175-0.118L71.361,73.757z M71.047,74.391v3.589l-0.166,0.112v-3.813
		L71.047,74.391z M70.846,78.185l0.485,0.484l-0.066,0.123l-0.543-0.541L70.846,78.185z M71.386,78.695h2.559l0.063,0.118h-2.686
		L71.386,78.695z M74.001,78.669l0.487-0.483l0.121,0.065l-0.543,0.541L74.001,78.669z M74.629,78.194l-0.117-0.064V74.24
		l0.117-0.062V78.194z M74.488,74.185l-0.487-0.484l0.065-0.123l0.543,0.541L74.488,74.185z M73.945,73.677h-2.559l-0.063-0.119
		h2.686L73.945,73.677z M71.331,73.702l-0.485,0.483l-0.123-0.066l0.542-0.541L71.331,73.702z M70.821,74.24v3.891l-0.118,0.064
		v-4.017L70.821,74.24z"/>
</g>
</svg>
