<?xml version="1.0" encoding="utf-8"?>
<!-- Generator: Adobe Illustrator 16.0.4, SVG Export Plug-In . SVG Version: 6.00 Build 0)  -->
<!DOCTYPE svg PUBLIC "-//W3C//DTD SVG 1.1//EN" "http://www.w3.org/Graphics/SVG/1.1/DTD/svg11.dtd">
<svg version="1.1" id="Layer_1" xmlns="http://www.w3.org/2000/svg" xmlns:xlink="http://www.w3.org/1999/xlink" x="0px" y="0px"
	 width="100px" height="100px" viewBox="0 0 100 100" enable-background="new 0 0 100 100" xml:space="preserve">
<path fill="#FFFFFF" d="M100,90c0,5.523-4.478,10-10,10H10c-5.522,0-10-4.477-10-10V10C0,4.477,4.478,0,10,0h80
	c5.522,0,10,4.477,10,10V90z"/>
<path d="M64.107,91.074c-3.885,0-6.682-0.165-8.393-0.494c-1.975-0.459-3.885-1.382-5.727-2.764
	c-4.147,3.356-8.688,5.035-13.626,5.035c-5.331,0-10.104-1.91-14.316-5.727c-4.411-3.949-6.615-8.557-6.615-13.823v-7.307H10v-9.479
	c0.197-0.064,2.007-0.197,5.431-0.395V26.797c0-5.331,2.204-9.972,6.615-13.922c4.212-3.816,8.985-5.727,14.316-5.727
	c5.332,0,10.153,1.942,14.465,5.826c4.311,3.884,6.468,8.491,6.468,13.822v46.505c0,2.238-0.462,4.443-1.383,6.615
	c0.921,0.593,1.777,0.987,2.567,1.185h5.628V91.074z M25.502,56.122c4.014,0.461,8.029,2.305,12.046,5.529
	c2.5,1.975,5.692,5.134,9.577,9.479V26.797c0-2.369-1.136-4.508-3.406-6.418c-2.271-1.908-4.725-2.863-7.356-2.863
	c-2.633,0-5.102,0.955-7.405,2.863c-2.305,1.91-3.455,4.049-3.455,6.418V56.122z M42.287,80.585L29.55,67.995
	c-1.054-1.066-2.403-1.732-4.048-2v7.195c0,2.333,1.15,4.465,3.455,6.396c2.304,1.932,4.772,2.897,7.405,2.897
	C38.402,82.484,40.377,81.852,42.287,80.585z"/>
<g>
	<g>
		<path fill="#020202" d="M64.886,60.714L72.19,50l7.272,10.736c1.318,1.943,0.811,4.589-1.132,5.907
			c-1.807,1.224-4.212,0.871-5.603-0.742l0.54,4.104L71.063,70l0.549-4.1c-1.396,1.608-3.802,1.95-5.604,0.724
			C64.064,65.304,63.564,62.655,64.886,60.714z"/>
	</g>
	<g>
		<path fill="#FFFFFF" d="M65.087,69.993c2.735,0.004,5.213,1.066,7.074,2.787c1.866-1.714,4.348-2.769,7.082-2.765
			c5.775,0.01,10.451,4.697,10.442,10.474c-0.008,5.775-4.697,10.45-10.473,10.441c-2.734-0.004-5.211-1.065-7.075-2.785
			c-1.865,1.714-4.348,2.769-7.082,2.764c-5.776-0.009-10.45-4.696-10.442-10.472C54.625,74.659,59.313,69.985,65.087,69.993z"/>
		<path fill="#020202" d="M79.229,91.245h-0.017c-2.605-0.004-5.106-0.953-7.075-2.677c-1.966,1.715-4.462,2.656-7.062,2.656
			c-5.959-0.009-10.785-4.848-10.776-10.787c0.012-5.932,4.845-10.758,10.772-10.758c2.623,0.004,5.125,0.953,7.091,2.678
			c1.967-1.715,4.465-2.656,7.064-2.656C85.184,69.71,90.009,74.549,90,80.489C89.991,86.419,85.159,91.244,79.229,91.245z
			 M72.138,87.716l0.213,0.197c1.883,1.738,4.32,2.698,6.862,2.701l0.015,0.315v-0.315c5.584,0,10.134-4.543,10.142-10.127
			c0.008-5.592-4.535-10.148-10.127-10.158c-2.553,0-4.986,0.953-6.869,2.682l-0.213,0.197l-0.213-0.197
			c-1.88-1.738-4.317-2.698-6.861-2.703c-5.597,0-10.146,4.544-10.158,10.129c-0.008,5.592,4.536,10.148,10.128,10.157
			c2.555,0,4.987-0.952,6.868-2.681L72.138,87.716z"/>
	</g>
	<g>
		<g>
			<path fill="#FFFFFF" d="M65.06,88.875c2.111,0.003,4.138-0.788,5.703-2.228l1.379-1.269l1.375,1.271
				c1.564,1.446,3.587,2.243,5.697,2.246c4.646,0.007,8.43-3.766,8.437-8.412c0.007-4.645-3.766-8.429-8.411-8.436
				c-2.109-0.004-4.135,0.788-5.702,2.229l-1.38,1.268l-1.375-1.271c-1.563-1.445-3.585-2.242-5.697-2.246
				c-4.645-0.006-8.43,3.768-8.436,8.413C56.642,85.083,60.417,88.868,65.06,88.875z"/>
			<g>
				
					<line fill="none" stroke="#000000" stroke-linecap="round" stroke-miterlimit="10" x1="72.142" y1="85.378" x2="72.142" y2="85.378"/>
				<path fill="none" stroke="#000000" stroke-linecap="round" stroke-miterlimit="10" stroke-dasharray="0.0101,2.0236" d="
					M73.631,86.753c1.548,1.38,3.523,2.139,5.583,2.142c4.646,0.007,8.43-3.766,8.437-8.412c0.007-4.645-3.766-8.429-8.411-8.436
					c-2.109-0.004-4.135,0.788-5.702,2.229l-0.629,0.578"/>
				
					<line fill="none" stroke="#000000" stroke-linecap="round" stroke-miterlimit="10" x1="72.157" y1="75.544" x2="72.157" y2="75.544"/>
				<path fill="none" stroke="#000000" stroke-linecap="round" stroke-miterlimit="10" stroke-dasharray="0.0101,2.0235" d="
					M70.668,74.169c-1.547-1.38-3.522-2.139-5.583-2.143c-4.645-0.006-8.43,3.768-8.436,8.413c-0.007,4.644,3.767,8.429,8.41,8.436
					c2.111,0.003,4.138-0.788,5.703-2.228l0.628-0.578"/>
			</g>
		</g>
	</g>
	<g>
		<path fill="#020202" d="M72.143,86.008c-0.17,0-0.328-0.069-0.447-0.183c-0.114-0.113-0.183-0.277-0.183-0.447
			c0-0.164,0.069-0.327,0.183-0.447c0.232-0.233,0.654-0.233,0.894,0c0.113,0.12,0.182,0.283,0.182,0.447
			c0,0.17-0.069,0.328-0.182,0.447C72.471,85.945,72.307,86.008,72.143,86.008z"/>
	</g>
	<g>
		<path fill="#020202" d="M72.155,76.177c-0.164,0-0.327-0.07-0.447-0.189c-0.113-0.113-0.182-0.277-0.182-0.44
			c0-0.165,0.069-0.328,0.182-0.448c0.24-0.232,0.656-0.232,0.895,0c0.12,0.121,0.183,0.284,0.183,0.448
			c0,0.163-0.07,0.327-0.183,0.44C72.483,76.107,72.319,76.177,72.155,76.177z"/>
	</g>
	<g>
		<path fill="#FFFFFF" d="M72.532,90.1c0.876,0.002,1.586-0.706,1.588-1.583l0.026-17.431c0.001-0.875-0.707-1.585-1.584-1.587
			l-0.791,0c-0.875-0.001-1.585,0.707-1.587,1.583l-0.026,17.432c-0.001,0.875,0.707,1.585,1.583,1.587H72.532z"/>
		<path fill="#020202" d="M72.536,90.415L72.536,90.415H71.74c-0.509-0.001-0.985-0.199-1.343-0.559
			c-0.359-0.36-0.555-0.837-0.554-1.345l0.025-17.431c0.002-1.047,0.855-1.898,1.9-1.898l0.794,0.001
			c1.048,0.002,1.9,0.855,1.899,1.902l-0.027,17.431C74.433,89.564,73.581,90.415,72.536,90.415z M71.77,69.813
			c-0.7,0-1.27,0.569-1.271,1.269l-0.026,17.431c-0.001,0.34,0.13,0.658,0.37,0.898s0.559,0.373,0.898,0.374h0.795
			c0.698,0,1.268-0.569,1.269-1.268l0.026-17.431c0.001-0.699-0.568-1.27-1.27-1.271L71.77,69.813z"/>
	</g>
	<g>
		<path fill="#FFFFFF" d="M56.692,89.885c0,1.463,1.186,2.651,2.651,2.651h25.632c1.464,0,2.651-1.186,2.651-2.651v-1.766
			c0-1.464-1.186-2.652-2.651-2.652H59.343c-1.463,0-2.651,1.187-2.651,2.652V89.885L56.692,89.885z"/>
		<path fill="#020202" d="M84.975,92.852H59.343c-1.635,0-2.966-1.331-2.966-2.966v-1.766c0-1.636,1.331-2.967,2.966-2.967h25.632
			c1.636,0,2.966,1.331,2.966,2.967v1.766C87.941,91.521,86.611,92.852,84.975,92.852z M59.343,85.782
			c-1.288,0-2.336,1.049-2.336,2.337v1.766c0,1.289,1.048,2.336,2.336,2.336h25.632c1.289,0,2.336-1.048,2.336-2.336v-1.766
			c0-1.288-1.048-2.337-2.336-2.337H59.343z"/>
	</g>
</g>
</svg>
