<?xml version="1.0" encoding="utf-8"?>
<!-- Generator: Adobe Illustrator 16.0.4, SVG Export Plug-In . SVG Version: 6.00 Build 0)  -->
<!DOCTYPE svg PUBLIC "-//W3C//DTD SVG 1.1//EN" "http://www.w3.org/Graphics/SVG/1.1/DTD/svg11.dtd">
<svg version="1.1" id="Layer_1" xmlns="http://www.w3.org/2000/svg" xmlns:xlink="http://www.w3.org/1999/xlink" x="0px" y="0px"
	 width="100px" height="100px" viewBox="0 0 100 100" enable-background="new 0 0 100 100" xml:space="preserve">
<path fill="#FFFFFF" d="M100,90c0,5.523-4.478,10-10,10H10c-5.522,0-10-4.477-10-10V10C0,4.477,4.478,0,10,0h80
	c5.522,0,10,4.477,10,10V90z"/>
<path d="M10,80.582h7.603v-64.77H10V6.729h23.005v9.084h-6.418v31.496L46.83,15.812h-7.801V6.729h25.276v9.084H57.04l-16.432,25.57
	l16.785,39.199h6.912v9.084H39.028v-9.084h8.161L34.483,50.91l-7.896,12.285v17.387h6.418v9.084H10V80.582z"/>
<g>
	<g>
		<path fill="#020202" d="M58.754,67.841c0.84-0.92,2.557-1.639,4.077-1.639c0.478,0,0.919,0.078,1.278,0.198
			c0.079,0.042,0.12,0.081,0.12,0.121c0,0.079,0,0.118-0.041,0.202c0,0-0.398,0.557-0.359,1.837
			c0.041,1.079,0.359,1.918,0.359,1.918c0.041,0.081,0,0.159-0.039,0.239c-0.08,0.041-0.16,0.078-0.24,0.041
			c-0.32-0.159-0.679-0.238-0.998-0.238c-0.721,0-1.359,0.359-1.76,0.998c-0.48,0.801-0.439,1.878,0.079,3.035
			c0.322-0.158,0.601-0.236,0.919-0.236c1.159,0,2.118,0.959,2.118,2.117c0,1-0.718,1.877-1.639,2.079
			c0.56,1.038,1.839,1.999,3.318,2.276c1.919,0.321,3.558-2.197,3.838-4.277c-0.24,0.121-0.559,0.164-0.84,0.164l0,0
			c-0.56,0-1.079-0.242-1.478-0.641c-0.399-0.4-0.6-0.961-0.6-1.521c0-0.279,0.042-0.598,0.162-0.838
			c-0.601-0.398-1.559-1.198-2.158-2.397c-0.44-0.882-1.237-3.196,0.639-5.319c0.84-0.916,2.559-1.637,4.076-1.637
			c0.479,0,0.92,0.08,1.279,0.199c0.08,0.042,0.121,0.081,0.121,0.121c0,0.08,0,0.119-0.041,0.199c0,0-0.399,0.561-0.359,1.84
			c0.038,1.08,0.359,1.918,0.359,1.918c0.041,0.078,0,0.162-0.039,0.24c-0.081,0.04-0.162,0.08-0.24,0.04
			c-0.321-0.159-0.68-0.241-1.001-0.241c-0.72,0-1.359,0.359-1.759,1c-0.479,0.8-0.439,1.879,0.08,3.037
			c0.319-0.159,0.6-0.24,0.92-0.24c1.158,0,2.119,0.961,2.119,2.12c0,0.72-0.359,1.397-0.921,1.759
			c0.08,2.077,1.72,4.996,3.759,5.035c1.998,0,3.595-2.877,3.756-4.955c-0.6-0.359-1.039-1.039-1.039-1.842
			c0-1.157,0.959-2.117,2.118-2.117c0.32,0,0.64,0.078,0.919,0.24c0.52-1.119,0.56-2.24,0.08-3.037c-0.359-0.641-1.037-1-1.758-1
			c-0.361,0-0.68,0.08-1,0.24c-0.078,0.039-0.16,0.039-0.238-0.039c-0.08-0.039-0.08-0.162-0.04-0.242c0,0,0.358-0.839,0.358-1.918
			c0.041-1.277-0.358-1.838-0.358-1.838c-0.04-0.04-0.04-0.119-0.04-0.201c0-0.08,0.078-0.12,0.12-0.12
			c0.36-0.118,0.8-0.198,1.279-0.198c1.52,0,3.279,0.718,4.076,1.637c1.881,2.119,1.081,4.438,0.641,5.319
			c-0.6,1.196-1.559,1.999-2.159,2.397c0.119,0.238,0.16,0.518,0.16,0.838c0,0.561-0.199,1.121-0.6,1.521
			c-0.399,0.398-0.918,0.637-1.479,0.637l0,0c-0.24,0-0.48-0.039-0.72-0.119c0.279,2.078,1.919,4.516,3.798,4.195
			c1.479-0.279,2.717-1.197,3.276-2.236c-0.999-0.202-1.718-1.041-1.718-2.078c0-1.16,0.959-2.12,2.117-2.12
			c0.32,0,0.641,0.081,0.92,0.239c0.521-1.119,0.561-2.236,0.08-3.039c-0.359-0.637-1.039-0.997-1.759-0.997
			c-0.359,0-0.678,0.081-0.998,0.239c-0.081,0.039-0.161,0.039-0.24-0.039c-0.081-0.039-0.081-0.158-0.041-0.242
			c0,0,0.36-0.838,0.36-1.916c0.041-1.279-0.36-1.84-0.36-1.84c-0.04-0.039-0.04-0.119-0.04-0.199c0-0.078,0.081-0.12,0.12-0.12
			c0.361-0.12,0.8-0.198,1.28-0.198c1.519,0,3.277,0.719,4.077,1.639c1.877,2.117,1.079,4.435,0.639,5.314
			c-0.598,1.201-1.559,1.998-2.156,2.398c0.117,0.24,0.158,0.52,0.158,0.839c0,0.56-0.199,1.12-0.599,1.519
			c-0.4,0.399-0.918,0.641-1.479,0.641l0,0l0,0c-0.519,2.078-0.32,3.078-0.999,6.674c-5.835,3.639-15.749,3.558-21.505-0.158
			c-0.6-3.52-0.32-4.438-0.758-6.516c-0.561,0-1.08-0.241-1.48-0.641c-0.398-0.398-0.599-0.96-0.599-1.519
			c0-0.28,0.04-0.599,0.16-0.839c-0.599-0.4-1.561-1.197-2.157-2.398C57.676,72.278,56.836,69.958,58.754,67.841z"/>
	</g>
	<g>
		<circle fill="#020202" cx="73.883" cy="66.542" r="2.619"/>
	</g>
	<g>
		<path fill="#FFFFFF" d="M59.434,86.915c0,1.357,1.099,2.459,2.457,2.459h23.762c1.355,0,2.458-1.102,2.458-2.459v-1.636
			c0-1.358-1.102-2.46-2.458-2.46H61.891c-1.357,0-2.457,1.102-2.457,2.46V86.915z"/>
		<path fill="#020202" d="M85.652,89.666H61.891c-1.516,0-2.75-1.233-2.75-2.751v-1.636c0-1.517,1.234-2.751,2.75-2.751h23.762
			c1.516,0,2.75,1.234,2.75,2.751v1.636C88.402,88.433,87.168,89.666,85.652,89.666z M61.891,83.114
			c-1.193,0-2.166,0.971-2.166,2.165v1.636c0,1.193,0.973,2.168,2.166,2.168h23.762c1.194,0,2.166-0.975,2.166-2.168v-1.636
			c0-1.194-0.972-2.165-2.166-2.165H61.891z"/>
	</g>
	<g>
		<path fill="#020202" d="M69.364,54.254c1.797,0,3.272,1.369,3.45,3.115c0.228-0.002,0.458-0.009,0.693-0.011l0.15-2.242
			c-1.811-0.118-3.237-1.615-3.237-3.453c0-1.914,1.548-3.466,3.463-3.466c1.911,0,3.466,1.552,3.466,3.466
			c0,1.838-1.433,3.335-3.237,3.453l0.151,2.242c0.231,0.002,0.461,0.009,0.692,0.018c0.172-1.753,1.649-3.122,3.447-3.122
			c1.913,0,3.462,1.552,3.462,3.466c0,1.915-1.549,3.464-3.462,3.464c-1.798,0-3.275-1.366-3.447-3.118
			c-0.214,0.008-0.428,0.011-0.643,0.015l0.419,6.325h-1.686l0.419-6.323c-0.219-0.002-0.432-0.009-0.644-0.013
			c-0.175,1.748-1.654,3.114-3.45,3.114c-1.916,0-3.465-1.549-3.465-3.464C65.906,55.806,67.449,54.254,69.364,54.254z"/>
	</g>
</g>
</svg>
