<?xml version="1.0" encoding="utf-8"?>
<!-- Generator: Adobe Illustrator 16.0.4, SVG Export Plug-In . SVG Version: 6.00 Build 0)  -->
<!DOCTYPE svg PUBLIC "-//W3C//DTD SVG 1.1//EN" "http://www.w3.org/Graphics/SVG/1.1/DTD/svg11.dtd">
<svg version="1.1" id="Layer_1" xmlns="http://www.w3.org/2000/svg" xmlns:xlink="http://www.w3.org/1999/xlink" x="0px" y="0px"
	 width="100px" height="100px" viewBox="0 0 100 100" enable-background="new 0 0 100 100" xml:space="preserve">
<path fill="#FFFFFF" d="M100,90c0,5.523-4.478,10-10,10H10c-5.522,0-10-4.477-10-10V10C0,4.477,4.478,0,10,0h80
	c5.522,0,10,4.477,10,10V90z"/>
<path fill="#B92226" d="M10,82.385h7.603v-64.77H10V8.531h23.005v9.084h-6.418v31.496L46.83,17.615h-7.801V8.531h25.276v9.084H57.04
	l-16.432,25.57l16.785,39.199h6.912v9.084H39.028v-9.084h8.161L34.483,52.713l-7.896,12.285v17.387h6.418v9.084H10V82.385z"/>
<g>
	<g>
		<path fill="#B92226" d="M60.803,78.683c0-7.318,5.955-13.273,13.273-13.273c7.319,0,13.274,5.955,13.274,13.273v8.937H60.803
			V78.683z"/>
		<path fill="#FFFFFF" d="M62,85v-6.317c0-6.624,5.375-12.013,11.999-12.013C80.624,66.67,86,72.059,86,78.683V85H62z"/>
	</g>
	<g>
		<path fill="#FFFFFF" d="M79.098,74.714c0-2.771-2.249-5.021-5.023-5.021c-2.773,0-5.022,2.249-5.022,5.021"/>
		<path fill="#B92226" d="M79.413,74.714h-0.63c0-2.595-2.112-4.706-4.708-4.706c-2.596,0-4.708,2.111-4.708,4.706h-0.629
			c0-2.942,2.394-5.336,5.337-5.336C77.018,69.378,79.413,71.771,79.413,74.714z"/>
	</g>
	<g>
		<path fill="#FFFFFF" d="M87.034,87.395v-8.937c0-2.772-2.249-5.022-5.022-5.022s-5.023,2.25-5.023,5.022v8.937"/>
		<path fill="#B92226" d="M87.349,87.395h-0.63v-8.937c0-2.596-2.111-4.706-4.707-4.706s-4.708,2.11-4.708,4.706v8.937h-0.63v-8.937
			c0-2.943,2.395-5.336,5.338-5.336c2.943,0,5.337,2.393,5.337,5.336V87.395z"/>
	</g>
	<g>
		<path fill="#FFFFFF" d="M71.162,87.619v-8.937c0-2.772-2.249-5.021-5.023-5.021c-2.773,0-5.022,2.248-5.022,5.021v8.937"/>
		<path fill="#B92226" d="M71.477,87.619h-0.629v-8.937c0-2.595-2.112-4.706-4.708-4.706c-2.596,0-4.708,2.111-4.708,4.706v8.937
			h-0.629v-8.937c0-2.942,2.394-5.337,5.337-5.337c2.943,0,5.337,2.395,5.337,5.337V87.619z"/>
	</g>
	<g>
		<path fill="#FFFFFF" d="M58.75,88.504c0,1.464,1.187,2.65,2.651,2.65h25.633c1.462,0,2.651-1.187,2.651-2.65v-1.767
			c0-1.463-1.188-2.652-2.651-2.652H61.402c-1.464,0-2.652,1.188-2.652,2.652L58.75,88.504L58.75,88.504z"/>
		<path fill="#B92226" d="M87.035,91.469H61.402c-1.636,0-2.966-1.33-2.966-2.965l-0.001-1.767c0-1.636,1.331-2.966,2.967-2.966
			h25.633c1.635,0,2.965,1.33,2.965,2.966v1.767C90,90.139,88.67,91.469,87.035,91.469z M61.402,84.4
			c-1.289,0-2.337,1.049-2.337,2.337l0.001,1.767c0,1.287,1.047,2.335,2.336,2.335h25.633c1.288,0,2.336-1.048,2.336-2.335v-1.767
			c0-1.288-1.048-2.337-2.336-2.337H61.402z"/>
	</g>
	<g>
		<polygon fill="#B92226" points="80.544,59.698 74.075,50 67.606,59.698 74.075,69.399 		"/>
	</g>
	<g>
		<path fill="#B92226" d="M60.928,82.337c-0.025,0-0.047-0.011-0.072-0.013v0.314h26.438v-0.314
			c-0.024,0.002-0.046,0.013-0.072,0.013c-0.285,0-0.515-0.229-0.515-0.514s0.231-0.516,0.515-0.516
			c0.026,0,0.047,0.013,0.072,0.015v-0.314H60.856v0.314c0.025-0.002,0.046-0.015,0.072-0.015c0.285,0,0.515,0.231,0.515,0.516
			S61.213,82.337,60.928,82.337z M84.831,81.823c0-0.284,0.23-0.516,0.515-0.516c0.284,0,0.514,0.231,0.514,0.516
			s-0.231,0.514-0.514,0.514C85.06,82.337,84.831,82.107,84.831,81.823z M82.952,81.823c0-0.284,0.23-0.516,0.515-0.516
			s0.514,0.231,0.514,0.516s-0.23,0.514-0.514,0.514C83.182,82.337,82.952,82.107,82.952,81.823z M81.073,81.823
			c0-0.284,0.231-0.516,0.514-0.516c0.286,0,0.514,0.231,0.514,0.516s-0.23,0.514-0.514,0.514
			C81.305,82.337,81.074,82.107,81.073,81.823z M79.196,81.823c0-0.284,0.229-0.516,0.515-0.516c0.284,0,0.514,0.231,0.514,0.516
			s-0.231,0.514-0.514,0.514C79.425,82.337,79.195,82.107,79.196,81.823z M77.318,81.823c0-0.284,0.229-0.516,0.514-0.516
			c0.284,0,0.515,0.231,0.515,0.516s-0.231,0.514-0.515,0.514C77.547,82.337,77.319,82.107,77.318,81.823z M75.439,81.823
			c0-0.284,0.23-0.516,0.514-0.516c0.285,0,0.515,0.231,0.515,0.516s-0.231,0.514-0.515,0.514
			C75.668,82.337,75.439,82.107,75.439,81.823z M73.561,81.823c0-0.284,0.23-0.516,0.514-0.516c0.285,0,0.515,0.231,0.515,0.516
			s-0.23,0.514-0.515,0.514C73.791,82.337,73.562,82.107,73.561,81.823z M71.683,81.823c0-0.284,0.231-0.516,0.514-0.516
			c0.284,0,0.514,0.231,0.514,0.516s-0.23,0.514-0.514,0.514C71.913,82.337,71.684,82.107,71.683,81.823z M69.805,81.823
			c0-0.284,0.229-0.516,0.514-0.516c0.284,0,0.515,0.231,0.515,0.516s-0.231,0.514-0.515,0.514
			C70.034,82.337,69.805,82.107,69.805,81.823z M67.928,81.823c0-0.284,0.23-0.516,0.515-0.516c0.284,0,0.514,0.231,0.514,0.516
			s-0.231,0.514-0.514,0.514C68.158,82.337,67.928,82.107,67.928,81.823z M66.049,81.823c0-0.284,0.23-0.516,0.514-0.516
			c0.285,0,0.515,0.231,0.515,0.516s-0.23,0.514-0.515,0.514C66.279,82.337,66.049,82.107,66.049,81.823z M64.171,81.823
			c0-0.284,0.231-0.516,0.514-0.516c0.284,0,0.514,0.231,0.514,0.516s-0.23,0.514-0.514,0.514
			C64.401,82.337,64.171,82.107,64.171,81.823z M62.293,81.823c0-0.284,0.231-0.516,0.514-0.516c0.285,0,0.515,0.231,0.515,0.516
			s-0.231,0.514-0.515,0.514C62.523,82.337,62.294,82.107,62.293,81.823z"/>
	</g>
</g>
</svg>
