<?xml version="1.0" encoding="utf-8"?>
<!-- Generator: Adobe Illustrator 16.0.4, SVG Export Plug-In . SVG Version: 6.00 Build 0)  -->
<!DOCTYPE svg PUBLIC "-//W3C//DTD SVG 1.1//EN" "http://www.w3.org/Graphics/SVG/1.1/DTD/svg11.dtd">
<svg version="1.1" id="Layer_1" xmlns="http://www.w3.org/2000/svg" xmlns:xlink="http://www.w3.org/1999/xlink" x="0px" y="0px"
	 width="100px" height="100px" viewBox="0 0 100 100" enable-background="new 0 0 100 100" xml:space="preserve">
<path fill="#FFFFFF" d="M100,90c0,5.523-4.478,10-10,10H10c-5.522,0-10-4.477-10-10V10C0,4.477,4.478,0,10,0h80
	c5.522,0,10,4.477,10,10V90z"/>
<path fill="#B92226" d="M10,82.385h7.603V17.614H10V8.531h23.005v9.083h-6.418v31.497L46.83,17.614h-7.801V8.531h25.276v9.083H57.04
	L40.608,43.186l16.785,39.199h6.912v9.084H39.028v-9.084h8.161L34.483,52.712l-7.896,12.286v17.387h6.418v9.084H10V82.385z"/>
<g>
	<g>
		<path fill="#B92226" d="M63.014,63.973c-0.001-0.694,0.562-1.258,1.258-1.258c0.692,0,1.256,0.562,1.256,1.256
			c0,0.534-0.333,0.988-0.804,1.171l7.491,20.086l3.834-20.981l3.873,20.975l7.5-20.209c-0.466-0.186-0.795-0.636-0.795-1.166
			c0-0.693,0.564-1.257,1.257-1.258c0.693-0.001,1.258,0.563,1.258,1.255c0.001,0.695-0.562,1.259-1.254,1.259
			c-0.01,0-0.017-0.002-0.023-0.002l0.178,22.493l-23.94,0.021l0.139-22.39C63.561,65.209,63.014,64.656,63.014,63.973z"/>
	</g>
	<g>
		<path fill="#FFFFFF" d="M62.45,88.833c0.001,1.291,1.047,2.335,2.338,2.334l22.578-0.02c1.29-0.001,2.334-1.047,2.333-2.337
			l-0.003-1.555c0-1.29-1.046-2.336-2.338-2.335l-22.576,0.02c-1.291,0.001-2.334,1.049-2.334,2.339L62.45,88.833z"/>
		<path fill="#B92226" d="M64.788,91.469h-0.002c-1.453,0-2.636-1.182-2.637-2.634l-0.002-1.556c0-1.456,1.183-2.64,2.636-2.64
			l22.576-0.021c1.454,0,2.638,1.183,2.639,2.637L90,88.81c0.001,1.454-1.181,2.638-2.635,2.639L64.788,91.469z M87.359,85.221
			l-22.578,0.02c-1.121,0-2.033,0.915-2.033,2.038l0.002,1.555c0.001,1.121,0.914,2.033,2.035,2.033v0.301l0.002-0.301l22.578-0.02
			c1.121-0.001,2.033-0.914,2.032-2.036l-0.002-1.556C89.395,86.134,88.48,85.221,87.359,85.221z"/>
	</g>
	<g>
		<path fill="#B92226" d="M80.738,63.958c-0.001-0.694,0.562-1.258,1.256-1.258c0.695,0,1.256,0.562,1.257,1.256
			c0,0.655-0.5,1.187-1.138,1.247l0.878,9.2l-2.78,7.493l-1.262-6.848l2.713-9.883C81.129,65.019,80.738,64.537,80.738,63.958z"/>
	</g>
	<g>
		<path fill="#B92226" d="M68.854,63.968c0-0.693,0.563-1.258,1.257-1.258c0.693,0,1.256,0.562,1.257,1.256
			c0,0.578-0.392,1.062-0.925,1.209l2.73,9.875l-1.254,6.85l-2.792-7.484l0.863-9.202C69.356,65.153,68.854,64.623,68.854,63.968z"
			/>
	</g>
	<g>
		<path fill="#B92226" d="M76.086,66.054l6.58-9.705c1.195-1.759,0.738-4.151-1.019-5.343c-1.761-1.191-4.152-0.733-5.349,1.025
			l-0.227,0.336l-0.229-0.335c-1.194-1.756-3.591-2.21-5.345-1.015c-1.756,1.195-2.213,3.59-1.014,5.343L76.086,66.054z"/>
	</g>
</g>
</svg>
