<?xml version="1.0" encoding="utf-8"?>
<!-- Generator: Adobe Illustrator 16.0.4, SVG Export Plug-In . SVG Version: 6.00 Build 0)  -->
<!DOCTYPE svg PUBLIC "-//W3C//DTD SVG 1.1//EN" "http://www.w3.org/Graphics/SVG/1.1/DTD/svg11.dtd">
<svg version="1.1" id="Layer_1" xmlns="http://www.w3.org/2000/svg" xmlns:xlink="http://www.w3.org/1999/xlink" x="0px" y="0px"
	 width="100px" height="100px" viewBox="0 0 100 100" enable-background="new 0 0 100 100" xml:space="preserve">
<path fill="#FFFFFF" d="M100,90c0,5.523-4.478,10-10,10H10c-5.522,0-10-4.477-10-10V10C0,4.477,4.478,0,10,0h80
	c5.522,0,10,4.477,10,10V90z"/>
<path d="M10,82.385h7.603V17.614H10V8.531h23.005v9.083h-6.418v31.497L46.83,17.614h-7.801V8.531h25.276v9.083H57.04L40.608,43.186
	l16.785,39.199h6.912v9.084H39.028v-9.084h8.161L34.483,52.712l-7.896,12.286v17.387h6.418v9.084H10V82.385z"/>
<g>
	<g>
		<path fill="#020202" d="M75.178,64l3.576,11.693l2.934-8.031c-0.665-0.247-1.141-0.881-1.141-1.633
			c0-0.963,0.781-1.745,1.747-1.745c0.962,0,1.744,0.783,1.744,1.745c0,0.878-0.649,1.597-1.49,1.722l1.398,10.132l3.981-6.006
			c-0.476-0.31-0.791-0.847-0.791-1.459c0-0.965,0.78-1.746,1.745-1.746c0.964,0,1.746,0.781,1.746,1.746
			c0,0.964-0.781,1.746-1.746,1.746c-0.147,0-0.289-0.024-0.427-0.06l-3.539,13.815H64.428l-3.529-13.772
			c-0.14,0.036-0.286,0.062-0.438,0.062c-0.963,0-1.746-0.782-1.746-1.746c0-0.964,0.782-1.745,1.746-1.745
			c0.965,0,1.746,0.781,1.746,1.747c0,0.602-0.307,1.132-0.77,1.446l3.958,5.975l1.398-10.132c-0.849-0.12-1.504-0.84-1.504-1.724
			c0-0.962,0.783-1.745,1.746-1.745c0.965,0,1.745,0.783,1.745,1.745c0,0.748-0.469,1.378-1.128,1.628l2.936,8.037L74.162,64"/>
	</g>
	<g>
		<circle fill="#FFFFFF" cx="80.971" cy="81.974" r="1.246"/>
	</g>
	<g>
		<path fill="#FFFFFF" d="M72.775,81.527c0.553,0.376,1.295,0.27,1.724-0.227l-0.167,1.263h0.677L74.842,81.3
			c0.429,0.498,1.17,0.603,1.725,0.227c0.598-0.406,0.752-1.221,0.347-1.818l-2.242-3.299l-2.244,3.299
			C72.021,80.308,72.178,81.122,72.775,81.527z"/>
	</g>
	<g>
		<circle fill="#FFFFFF" cx="68.371" cy="81.974" r="1.246"/>
	</g>
	<g>
		<path fill="#FFFFFF" d="M61.617,88.915c0,1.26,1.02,2.283,2.28,2.283h22.052c1.259,0,2.281-1.021,2.281-2.283v-1.519
			c0-1.259-1.021-2.282-2.281-2.282H63.897c-1.259,0-2.282,1.021-2.282,2.282L61.617,88.915L61.617,88.915z"/>
		<path fill="#020202" d="M85.949,91.469H63.897c-1.407,0-2.552-1.146-2.552-2.554l-0.002-1.518c0-1.408,1.146-2.553,2.554-2.553
			h22.052c1.407,0,2.551,1.146,2.551,2.553v1.519C88.5,90.323,87.356,91.469,85.949,91.469z M63.897,85.386
			c-1.109,0-2.011,0.902-2.011,2.011l0.001,1.519c0,1.109,0.901,2.012,2.01,2.012h22.052c1.107,0,2.01-0.902,2.01-2.012v-1.519
			c0-1.108-0.902-2.011-2.01-2.011H63.897z"/>
	</g>
	<g>
		<path d="M68.51,63.704c1.799,1.225,4.21,0.877,5.604-0.736l-0.543,4.104h2.201l-0.542-4.104c1.394,1.617,3.803,1.961,5.606,0.736
			c1.942-1.321,2.443-3.97,1.126-5.91l-7.286-10.722l-7.293,10.722C66.061,59.741,66.566,62.387,68.51,63.704z"/>
	</g>
</g>
</svg>
