<?xml version="1.0" encoding="utf-8"?>
<!-- Generator: Adobe Illustrator 16.0.4, SVG Export Plug-In . SVG Version: 6.00 Build 0)  -->
<!DOCTYPE svg PUBLIC "-//W3C//DTD SVG 1.1//EN" "http://www.w3.org/Graphics/SVG/1.1/DTD/svg11.dtd">
<svg version="1.1" id="Layer_1" xmlns="http://www.w3.org/2000/svg" xmlns:xlink="http://www.w3.org/1999/xlink" x="0px" y="0px"
	 width="100px" height="100px" viewBox="0 0 100 100" enable-background="new 0 0 100 100" xml:space="preserve">
<path fill="#FFFFFF" d="M100,90c0,5.523-4.478,10-10,10H10c-5.522,0-10-4.477-10-10V10C0,4.477,4.478,0,10,0h80
	c5.522,0,10,4.477,10,10V90z"/>
<g>
	<path fill="#020202" d="M72.3,39.896c-8.866,0-16.16,6.75-17.02,15.385c-1.131-0.014-2.273-0.053-3.421-0.058l-0.731-11.069
		c8.918-0.578,15.977-7.978,15.977-17.045C67.104,17.663,59.447,10,49.993,10c-9.438,0-17.101,7.663-17.101,17.109
		c0,9.067,7.06,16.467,15.974,17.045l-0.73,11.069c-1.148,0.021-2.288,0.044-3.417,0.067c-0.858-8.645-8.148-15.395-17.018-15.395
		c-9.452,0-17.108,7.656-17.108,17.104c0,9.45,7.656,17.108,17.108,17.108c8.869,0,16.159-6.757,17.018-15.403
		c1.05,0.027,2.112,0.051,3.18,0.061L45.828,90h8.331l-2.065-31.222c1.07-0.022,2.133-0.046,3.187-0.06
		c0.859,8.633,8.155,15.39,17.02,15.39c9.449,0,17.107-7.658,17.107-17.108C89.406,47.553,81.749,39.896,72.3,39.896z"/>
	<g>
		<g>
			<path fill="#FFFFFF" d="M44.124,20.859c0.813,0,1.469,1.313,1.469,2.936c0,1.628-0.655,2.941-1.469,2.941
				c-0.81,0-1.468-1.313-1.468-2.941C42.656,22.173,43.314,20.859,44.124,20.859z"/>
			<path fill="#FFFFFF" d="M55.875,20.859c0.811,0,1.468,1.313,1.468,2.936c0,1.628-0.657,2.941-1.468,2.941
				c-0.812,0-1.466-1.313-1.466-2.941C54.409,22.173,55.062,20.859,55.875,20.859z"/>
		</g>
		<g>
			<path fill="#FFFFFF" d="M40.821,28.911c1.06,0,1.92,0.433,1.92,0.961s-0.86,0.965-1.92,0.965c-1.063,0-1.923-0.437-1.923-0.965
				S39.758,28.911,40.821,28.911z"/>
			<path fill="#FFFFFF" d="M59.18,28.911c1.063,0,1.926,0.433,1.926,0.961s-0.862,0.965-1.926,0.965
				c-1.062,0-1.923-0.437-1.923-0.965S58.117,28.911,59.18,28.911z"/>
		</g>
	</g>
</g>
</svg>
