<?xml version="1.0" encoding="utf-8"?>
<!-- Generator: Adobe Illustrator 16.0.4, SVG Export Plug-In . SVG Version: 6.00 Build 0)  -->
<!DOCTYPE svg PUBLIC "-//W3C//DTD SVG 1.1//EN" "http://www.w3.org/Graphics/SVG/1.1/DTD/svg11.dtd">
<svg version="1.1" id="Layer_1" xmlns="http://www.w3.org/2000/svg" xmlns:xlink="http://www.w3.org/1999/xlink" x="0px" y="0px"
	 width="100px" height="100px" viewBox="0 0 100 100" enable-background="new 0 0 100 100" xml:space="preserve">
<path fill="#FFFFFF" d="M100,90c0,5.523-4.478,10-10,10H10c-5.522,0-10-4.477-10-10V10C0,4.477,4.478,0,10,0h80
	c5.522,0,10,4.477,10,10V90z"/>
<g>
	<polygon fill="#B92226" points="19.997,50 49.999,5 80.003,50 49.999,95 	"/>
	<g>
		<g>
			<ellipse fill="#FFFFFF" cx="41.53" cy="47.042" rx="2.118" ry="4.232"/>
			<path fill="#FFFFFF" d="M58.47,42.811c1.169,0,2.116,1.896,2.116,4.234c0,2.336-0.946,4.229-2.116,4.229
				c-1.171,0-2.118-1.894-2.118-4.229C56.352,44.707,57.299,42.811,58.47,42.811z"/>
		</g>
		<g>
			<path fill="#FFFFFF" d="M36.767,54.413c1.53,0,2.772,0.624,2.772,1.386c0,0.764-1.242,1.389-2.772,1.389
				c-1.533,0-2.776-0.625-2.776-1.389C33.991,55.037,35.234,54.413,36.767,54.413z"/>
			<path fill="#FFFFFF" d="M63.231,54.413c1.533,0,2.776,0.624,2.776,1.386c0,0.764-1.244,1.389-2.776,1.389
				c-1.529,0-2.772-0.625-2.772-1.389C60.459,55.037,61.702,54.413,63.231,54.413z"/>
		</g>
	</g>
</g>
</svg>
