<?xml version="1.0" encoding="utf-8"?>
<!-- Generator: Adobe Illustrator 16.0.4, SVG Export Plug-In . SVG Version: 6.00 Build 0)  -->
<!DOCTYPE svg PUBLIC "-//W3C//DTD SVG 1.1//EN" "http://www.w3.org/Graphics/SVG/1.1/DTD/svg11.dtd">
<svg version="1.1" id="Layer_1" xmlns="http://www.w3.org/2000/svg" xmlns:xlink="http://www.w3.org/1999/xlink" x="0px" y="0px"
	 width="100px" height="100px" viewBox="0 0 100 100" enable-background="new 0 0 100 100" xml:space="preserve">
<path fill="#FFFFFF" d="M100,90c0,5.523-4.478,10-10,10H10c-5.522,0-10-4.477-10-10V10C0,4.477,4.478,0,10,0h80
	c5.522,0,10,4.477,10,10V90z"/>
<g>
	<path fill="#B92226" d="M49.997,85L20.627,41.78c-5.318-7.833-3.281-18.491,4.541-23.815c7.835-5.32,18.497-3.28,23.815,4.546
		l1.013,1.496l1.016-1.496c5.321-7.831,15.984-9.866,23.812-4.546c7.831,5.322,9.868,15.986,4.543,23.815L49.997,85z"/>
	<g>
		<g>
			<path fill="#FFFFFF" d="M44.007,37.542c0,2.207-0.894,3.996-2,3.996c-1.104,0-1.997-1.79-1.997-3.996
				c0-2.205,0.892-3.996,1.997-3.996C43.113,33.546,44.007,35.337,44.007,37.542z"/>
			<path fill="#FFFFFF" d="M59.986,37.542c0,2.207-0.892,3.996-1.995,3.996c-1.105,0-2-1.79-2-3.996c0-2.205,0.895-3.996,2-3.996
				C59.094,33.546,59.986,35.337,59.986,37.542z"/>
		</g>
		<g>
			<ellipse fill="#FFFFFF" cx="37.514" cy="45.802" rx="2.616" ry="1.307"/>
			<path fill="#FFFFFF" d="M62.483,44.495c1.446,0,2.619,0.584,2.619,1.308c0,0.726-1.173,1.307-2.619,1.307
				c-1.443,0-2.616-0.582-2.616-1.307C59.868,45.079,61.041,44.495,62.483,44.495z"/>
		</g>
	</g>
</g>
</svg>
